G04 Layer_Color=65535*
%FSLAX23Y23*%
%MOIN*%
G70*
G01*
G75*
%ADD14C,0.014*%
%ADD16C,0.010*%
%ADD30C,0.024*%
%ADD31C,0.010*%
%ADD32C,0.008*%
%ADD33C,0.004*%
%ADD34C,0.005*%
%ADD35C,0.008*%
%ADD36C,0.006*%
%ADD37C,0.007*%
G36*
X2659Y-819D02*
X2659Y-819D01*
Y-820D01*
Y-820D01*
X2663Y-840D01*
Y-840D01*
X2663Y-840D01*
X2663Y-841D01*
X2664D01*
X2677Y-846D01*
X2678D01*
X2695Y-835D01*
X2696D01*
X2696Y-835D01*
X2711Y-849D01*
Y-849D01*
Y-850D01*
Y-850D01*
Y-850D01*
X2699Y-867D01*
Y-867D01*
Y-867D01*
Y-867D01*
Y-868D01*
Y-868D01*
X2705Y-882D01*
X2705Y-882D01*
X2706Y-883D01*
X2706D01*
X2725Y-886D01*
X2726D01*
X2726Y-886D01*
Y-887D01*
Y-887D01*
Y-907D01*
X2726Y-907D01*
X2725Y-908D01*
X2725D01*
X2707Y-912D01*
X2706D01*
X2706Y-912D01*
Y-912D01*
Y-912D01*
X2699Y-927D01*
Y-928D01*
Y-928D01*
Y-928D01*
Y-928D01*
X2711Y-944D01*
Y-944D01*
Y-945D01*
Y-945D01*
X2696Y-959D01*
X2696Y-959D01*
X2695D01*
X2695Y-959D01*
X2680Y-949D01*
X2678D01*
X2672Y-953D01*
X2671Y-952D01*
X2670Y-952D01*
X2657Y-918D01*
X2657Y-917D01*
X2657Y-917D01*
X2659Y-916D01*
X2659Y-916D01*
X2659D01*
X2660Y-915D01*
X2660Y-915D01*
X2663Y-913D01*
X2666Y-910D01*
X2667Y-907D01*
X2669Y-904D01*
X2669Y-902D01*
X2669Y-899D01*
X2670Y-898D01*
Y-897D01*
X2669Y-894D01*
X2669Y-891D01*
X2668Y-888D01*
X2666Y-886D01*
X2665Y-884D01*
X2664Y-883D01*
X2664Y-882D01*
X2663Y-882D01*
X2661Y-880D01*
X2658Y-878D01*
X2656Y-877D01*
X2653Y-876D01*
X2651Y-875D01*
X2649Y-875D01*
X2648D01*
X2645Y-875D01*
X2642Y-876D01*
X2639Y-877D01*
X2637Y-878D01*
X2635Y-880D01*
X2634Y-881D01*
X2633Y-882D01*
X2633Y-882D01*
X2631Y-884D01*
X2629Y-887D01*
X2628Y-890D01*
X2627Y-892D01*
X2627Y-894D01*
X2626Y-896D01*
Y-897D01*
Y-897D01*
X2627Y-902D01*
X2628Y-905D01*
X2629Y-908D01*
X2631Y-911D01*
X2633Y-913D01*
X2635Y-914D01*
X2636Y-915D01*
X2636Y-915D01*
X2637Y-916D01*
X2637Y-916D01*
X2637Y-916D01*
X2639Y-917D01*
X2639Y-918D01*
Y-918D01*
Y-918D01*
X2626Y-952D01*
X2625Y-952D01*
X2625Y-953D01*
X2624D01*
X2618Y-949D01*
X2616D01*
X2601Y-959D01*
X2601Y-959D01*
X2600D01*
X2600Y-959D01*
X2586Y-945D01*
Y-945D01*
Y-945D01*
Y-944D01*
X2597Y-928D01*
Y-928D01*
Y-928D01*
Y-927D01*
Y-927D01*
X2591Y-912D01*
X2590Y-912D01*
X2590Y-912D01*
X2589D01*
X2571Y-908D01*
X2571Y-907D01*
X2570Y-907D01*
Y-907D01*
Y-887D01*
Y-886D01*
X2571Y-886D01*
X2571D01*
X2590Y-883D01*
X2591Y-882D01*
X2591Y-882D01*
Y-882D01*
X2597Y-868D01*
Y-868D01*
Y-867D01*
Y-867D01*
Y-867D01*
X2586Y-850D01*
Y-850D01*
Y-850D01*
Y-849D01*
Y-849D01*
X2600Y-835D01*
X2600Y-835D01*
X2601D01*
X2618Y-846D01*
X2619D01*
X2633Y-841D01*
X2633Y-840D01*
X2633Y-840D01*
Y-840D01*
Y-840D01*
X2637Y-820D01*
Y-819D01*
X2638Y-819D01*
X2658D01*
X2659Y-819D01*
D02*
G37*
G36*
X1550Y-635D02*
X1485D01*
X1520Y-580D01*
X1550Y-635D01*
D02*
G37*
D14*
X-111Y63D02*
Y724D01*
X-1Y509D02*
Y699D01*
Y89D02*
Y279D01*
Y299D02*
Y489D01*
X-111Y724D02*
X98D01*
X-111Y63D02*
X98D01*
X393D02*
X803D01*
X373Y724D02*
X803D01*
X897Y256D02*
Y531D01*
D16*
X-111Y-709D02*
X221D01*
X367D02*
X519D01*
X367Y-235D02*
X519D01*
X-111D02*
X221D01*
D30*
X976Y-205D02*
G03*
X976Y-205I-12J0D01*
G01*
D31*
X873Y-177D02*
G03*
X873Y-177I-5J0D01*
G01*
D32*
X925Y-579D02*
X1083D01*
X925Y-165D02*
X1083D01*
Y-579D02*
Y-165D01*
X925Y-579D02*
Y-165D01*
X1570Y-544D02*
X1587Y-561D01*
X1570Y-562D02*
Y-168D01*
X1620Y-198D02*
X1753D01*
X1770Y-215D01*
X1753Y-232D02*
X1770Y-215D01*
X1620Y-232D02*
X1753D01*
X1620Y-298D02*
X1753D01*
X1770Y-315D01*
X1753Y-332D02*
X1770Y-315D01*
X1620Y-332D02*
X1753D01*
X1620Y-498D02*
X1753D01*
X1770Y-515D01*
X1753Y-532D02*
X1770Y-515D01*
X1620Y-532D02*
X1753D01*
X1570Y-562D02*
X1620D01*
Y-168D01*
X1570D02*
X1620D01*
X519Y-709D02*
Y-235D01*
X-111Y-709D02*
Y-235D01*
D33*
X1305Y-355D02*
Y-295D01*
Y-170D02*
Y-110D01*
Y-240D02*
Y-180D01*
Y-545D02*
Y-485D01*
Y-425D02*
Y-365D01*
X1231Y-425D02*
Y-365D01*
X1790Y565D02*
Y625D01*
X1795Y70D02*
Y130D01*
X1775Y760D02*
X1835D01*
X590Y-320D02*
X650D01*
X2877Y592D02*
Y652D01*
X717Y-38D02*
Y22D01*
X857Y-38D02*
Y22D01*
X665Y-320D02*
X725D01*
D34*
X967Y-613D02*
Y-646D01*
X973Y-653D01*
X987D01*
X993Y-646D01*
Y-613D01*
X1007Y-653D02*
X1020D01*
X1013D01*
Y-613D01*
X1007Y-620D01*
X2871Y-571D02*
X2844D01*
Y-611D01*
X2871D01*
X2844Y-591D02*
X2858D01*
X2884Y-611D02*
X2898D01*
X2891D01*
Y-571D01*
X2884Y-578D01*
X443Y827D02*
X430D01*
X437D01*
Y794D01*
X430Y787D01*
X423D01*
X417Y794D01*
X457Y787D02*
X470D01*
X463D01*
Y827D01*
X457Y820D01*
X1765Y495D02*
Y535D01*
X1785D01*
X1792Y528D01*
Y515D01*
X1785Y508D01*
X1765D01*
X1778D02*
X1792Y495D01*
X1805D02*
X1818D01*
X1812D01*
Y535D01*
X1805Y528D01*
X1765Y0D02*
Y40D01*
X1785D01*
X1792Y33D01*
Y20D01*
X1785Y13D01*
X1765D01*
X1778D02*
X1792Y0D01*
X1832D02*
X1805D01*
X1832Y27D01*
Y33D01*
X1825Y40D01*
X1812D01*
X1805Y33D01*
X713Y-65D02*
X707Y-58D01*
X693D01*
X687Y-65D01*
Y-91D01*
X693Y-98D01*
X707D01*
X713Y-91D01*
X753Y-98D02*
X727D01*
X753Y-71D01*
Y-65D01*
X747Y-58D01*
X733D01*
X727Y-65D01*
X1780Y900D02*
Y860D01*
X1807D01*
X1820D02*
X1833D01*
X1827D01*
Y900D01*
X1820Y893D01*
X2865Y525D02*
Y565D01*
X2885D01*
X2892Y558D01*
Y545D01*
X2885Y538D01*
X2865D01*
X2878D02*
X2892Y525D01*
X2905Y558D02*
X2912Y565D01*
X2925D01*
X2932Y558D01*
Y552D01*
X2925Y545D01*
X2918D01*
X2925D01*
X2932Y538D01*
Y532D01*
X2925Y525D01*
X2912D01*
X2905Y532D01*
X825Y-95D02*
Y-55D01*
X845D01*
X852Y-62D01*
Y-75D01*
X845Y-82D01*
X825D01*
X838D02*
X852Y-95D01*
X885D02*
Y-55D01*
X865Y-75D01*
X892D01*
X1422Y-382D02*
X1415Y-375D01*
X1402D01*
X1395Y-382D01*
Y-408D01*
X1402Y-415D01*
X1415D01*
X1422Y-408D01*
X1435Y-382D02*
X1442Y-375D01*
X1455D01*
X1462Y-382D01*
Y-388D01*
X1455Y-395D01*
X1448D01*
X1455D01*
X1462Y-402D01*
Y-408D01*
X1455Y-415D01*
X1442D01*
X1435Y-408D01*
X1422Y-502D02*
X1415Y-495D01*
X1402D01*
X1395Y-502D01*
Y-528D01*
X1402Y-535D01*
X1415D01*
X1422Y-528D01*
X1455Y-535D02*
Y-495D01*
X1435Y-515D01*
X1462D01*
X605Y-199D02*
X598Y-192D01*
X585D01*
X578Y-199D01*
Y-225D01*
X585Y-232D01*
X598D01*
X605Y-225D01*
X645Y-192D02*
X618D01*
Y-212D01*
X631Y-205D01*
X638D01*
X645Y-212D01*
Y-225D01*
X638Y-232D01*
X625D01*
X618Y-225D01*
X1395Y-230D02*
Y-190D01*
X1415D01*
X1422Y-197D01*
Y-210D01*
X1415Y-217D01*
X1395D01*
X1408D02*
X1422Y-230D01*
X1462Y-190D02*
X1435D01*
Y-210D01*
X1448Y-203D01*
X1455D01*
X1462Y-210D01*
Y-223D01*
X1455Y-230D01*
X1442D01*
X1435Y-223D01*
X1395Y-160D02*
Y-120D01*
X1415D01*
X1422Y-127D01*
Y-140D01*
X1415Y-147D01*
X1395D01*
X1408D02*
X1422Y-160D01*
X1462Y-120D02*
X1448Y-127D01*
X1435Y-140D01*
Y-153D01*
X1442Y-160D01*
X1455D01*
X1462Y-153D01*
Y-147D01*
X1455Y-140D01*
X1435D01*
X663Y-192D02*
Y-232D01*
X690D01*
X730D02*
X703D01*
X730Y-205D01*
Y-199D01*
X723Y-192D01*
X710D01*
X703Y-199D01*
X1422Y-312D02*
X1415Y-305D01*
X1402D01*
X1395Y-312D01*
Y-338D01*
X1402Y-345D01*
X1415D01*
X1422Y-338D01*
X1435Y-345D02*
X1448D01*
X1442D01*
Y-305D01*
X1435Y-312D01*
D35*
X1570Y-120D02*
Y-80D01*
X1590D01*
X1597Y-87D01*
Y-100D01*
X1590Y-107D01*
X1570D01*
X1610Y-120D02*
X1623D01*
X1617D01*
Y-80D01*
X1610Y-87D01*
X127Y-149D02*
X113D01*
X120D01*
Y-183D01*
X113Y-189D01*
X107D01*
X100Y-183D01*
X167Y-189D02*
X140D01*
X167Y-163D01*
Y-156D01*
X160Y-149D01*
X147D01*
X140Y-156D01*
D36*
X1875Y-245D02*
Y-195D01*
X1900D01*
X1908Y-203D01*
Y-220D01*
X1900Y-228D01*
X1875D01*
X1892D02*
X1908Y-245D01*
X1925Y-212D02*
X1958Y-245D01*
X1942Y-228D01*
X1958Y-212D01*
X1925Y-245D01*
X1975Y-195D02*
Y-245D01*
X2000D01*
X2008Y-237D01*
Y-203D01*
X2000Y-195D01*
X1975D01*
X1875Y-295D02*
X1908D01*
X1892D01*
Y-345D01*
X1925Y-312D02*
X1958Y-345D01*
X1942Y-328D01*
X1958Y-312D01*
X1925Y-345D01*
X1975Y-295D02*
Y-345D01*
X2000D01*
X2008Y-337D01*
Y-303D01*
X2000Y-295D01*
X1975D01*
X1913Y-503D02*
X1905Y-495D01*
X1888D01*
X1880Y-503D01*
Y-537D01*
X1888Y-545D01*
X1905D01*
X1913Y-537D01*
Y-520D01*
X1897D01*
X1930Y-545D02*
Y-495D01*
X1963Y-545D01*
Y-495D01*
X1980D02*
Y-545D01*
X2005D01*
X2013Y-537D01*
Y-503D01*
X2005Y-495D01*
X1980D01*
X2937Y-676D02*
X2954D01*
X2945D01*
Y-626D01*
X2937Y-634D01*
X2907Y-14D02*
Y36D01*
X2882Y11D01*
X2915D01*
X2932Y27D02*
X2940Y36D01*
X2957D01*
X2965Y27D01*
Y19D01*
X2957Y11D01*
X2949D01*
X2957D01*
X2965Y2D01*
Y-6D01*
X2957Y-14D01*
X2940D01*
X2932Y-6D01*
X2907Y143D02*
Y193D01*
X2882Y168D01*
X2915D01*
X2965Y193D02*
X2932D01*
Y168D01*
X2949Y177D01*
X2957D01*
X2965Y168D01*
Y152D01*
X2957Y143D01*
X2940D01*
X2932Y152D01*
X2874Y729D02*
X2908D01*
Y721D01*
X2874Y687D01*
Y679D01*
X2924Y687D02*
X2933Y679D01*
X2949D01*
X2958Y687D01*
Y721D01*
X2949Y729D01*
X2933D01*
X2924Y721D01*
Y712D01*
X2933Y704D01*
X2958D01*
D37*
X2603Y-982D02*
X2593D01*
X2588Y-987D01*
Y-1007D01*
X2593Y-1012D01*
X2603D01*
X2608Y-1007D01*
Y-987D01*
X2603Y-982D01*
X2638Y-987D02*
X2633Y-982D01*
X2623D01*
X2618Y-987D01*
Y-992D01*
X2623Y-997D01*
X2633D01*
X2638Y-1002D01*
Y-1007D01*
X2633Y-1012D01*
X2623D01*
X2618Y-1007D01*
X2648Y-982D02*
Y-1012D01*
Y-997D01*
X2668D01*
Y-982D01*
Y-1012D01*
X2678Y-982D02*
Y-1012D01*
X2688Y-1002D01*
X2698Y-1012D01*
Y-982D01*
M02*
