M48
;Layer_Color=9474304
;FILE_FORMAT=2:5
INCH,LZ
;TYPE=PLATED
T1F00S00C0.01575
T2F00S00C0.03504
T3F00S00C0.03543
T4F00S00C0.03622
T5F00S00C0.04724
T6F00S00C0.06200
T7F00S00C0.09055
T8F00S00C0.12205
T9F00S00C0.12795
%
T01
X02835Y-0046
Y-0026
X0283682Y-0006799
Y0004201
X02835Y00135
X03025Y0017
X02445Y00135
X0244682Y0004201
Y-0006799
X02445Y-0026
Y-0046
X02045Y-0047
Y-0027
X0204682Y-0006799
Y0004201
X02045Y00135
X01495
X0149682Y0004201
X0119682
X01195Y00135
X0122Y-0027
X0106
X0102944Y-0041038
X0106Y-0045
X0103Y-00555
X0122Y-0045
X0139
X0099Y-00555
X0075Y-0028
X0098682Y-0000799
X00825Y00395
X0059682Y0071201
X01175Y0065
Y0055
X0149682Y0055201
Y0065201
X01495Y0045
X02045
X0204682Y0055201
Y0065201
X0244682
Y0055201
X02445Y0045
X0283682Y0055201
X0277682Y0061941
X0298816Y0061169
X0298682Y0071201
X03025Y0048571
Y00425
Y0028
T02
X0075454Y001939
X0085178Y0020906
Y0010905
X0075454Y0027382
Y0035374
Y0043366
Y0051358
Y005935
X0085178Y0057835
Y0067835
T03
X0152Y-00515
Y-00315
Y-00215
T04
X0040083Y-0052165
X0047957
Y-0042323
X0040083
T05
X0147638Y-0106299
X019685
X0098425
Y0106299
X0147638
X019685
T06
X0018958Y0007618
Y0071122
T07
X0029414Y-0070945
Y-0023543
T08
X0236221Y-0094488
X0059055
Y0094488
X0236221
T09
X0031438Y001437
Y006437
M30
