G04 Layer_Color=16711935*
%FSLAX23Y23*%
%MOIN*%
G70*
G01*
G75*
%ADD30R,1.378X0.110*%
%ADD43R,0.146X0.030*%
%ADD44C,0.068*%
%ADD45R,0.068X0.068*%
%ADD46C,0.108*%
%ADD47C,0.055*%
%ADD48C,0.126*%
%ADD49C,0.165*%
%ADD50R,0.067X0.067*%
%ADD51C,0.067*%
D30*
X1433Y-1039D02*
D03*
Y1039D02*
D03*
D43*
X3150Y-677D02*
D03*
Y-646D02*
D03*
Y-614D02*
D03*
Y-583D02*
D03*
Y-551D02*
D03*
Y-520D02*
D03*
Y-488D02*
D03*
Y-457D02*
D03*
Y-425D02*
D03*
Y-394D02*
D03*
Y-362D02*
D03*
Y-331D02*
D03*
Y-299D02*
D03*
Y-268D02*
D03*
Y-236D02*
D03*
Y-205D02*
D03*
Y-173D02*
D03*
Y-142D02*
D03*
Y-110D02*
D03*
Y-79D02*
D03*
Y-47D02*
D03*
Y-16D02*
D03*
Y142D02*
D03*
Y173D02*
D03*
Y205D02*
D03*
Y236D02*
D03*
Y268D02*
D03*
Y299D02*
D03*
Y331D02*
D03*
Y362D02*
D03*
Y394D02*
D03*
Y425D02*
D03*
Y457D02*
D03*
Y488D02*
D03*
Y520D02*
D03*
Y551D02*
D03*
Y583D02*
D03*
Y614D02*
D03*
Y646D02*
D03*
Y677D02*
D03*
D44*
X712Y594D02*
D03*
Y514D02*
D03*
Y434D02*
D03*
Y354D02*
D03*
Y274D02*
D03*
X809Y109D02*
D03*
Y209D02*
D03*
Y578D02*
D03*
Y678D02*
D03*
D45*
X712Y194D02*
D03*
D46*
X272Y144D02*
D03*
X147Y76D02*
D03*
Y711D02*
D03*
X272Y644D02*
D03*
D47*
X436Y-423D02*
D03*
X357D02*
D03*
X436Y-522D02*
D03*
X357D02*
D03*
D48*
X251Y-235D02*
D03*
Y-709D02*
D03*
D49*
X591Y945D02*
D03*
X2397D02*
D03*
Y-945D02*
D03*
X591D02*
D03*
D50*
X1555Y-515D02*
D03*
D51*
Y-315D02*
D03*
Y-215D02*
D03*
M02*
