G04 Layer_Color=8421504*
%FSLAX23Y23*%
%MOIN*%
G70*
G01*
G75*
%ADD10R,0.138X0.022*%
%ADD11R,0.059X0.051*%
%ADD12R,0.051X0.059*%
%ADD13O,0.083X0.014*%
%ADD29R,1.378X0.118*%
%ADD38R,1.378X0.118*%
D10*
X3114Y-648D02*
D03*
Y-617D02*
D03*
Y-585D02*
D03*
Y-554D02*
D03*
Y-522D02*
D03*
Y-491D02*
D03*
Y-459D02*
D03*
Y-428D02*
D03*
Y-396D02*
D03*
Y-365D02*
D03*
Y-333D02*
D03*
Y-302D02*
D03*
Y-270D02*
D03*
Y-239D02*
D03*
Y-207D02*
D03*
Y-176D02*
D03*
Y-144D02*
D03*
Y-113D02*
D03*
Y-81D02*
D03*
Y-50D02*
D03*
Y-18D02*
D03*
Y13D02*
D03*
Y171D02*
D03*
Y202D02*
D03*
Y234D02*
D03*
Y265D02*
D03*
Y297D02*
D03*
Y328D02*
D03*
Y360D02*
D03*
Y391D02*
D03*
Y423D02*
D03*
Y454D02*
D03*
Y486D02*
D03*
Y517D02*
D03*
Y549D02*
D03*
Y580D02*
D03*
Y612D02*
D03*
Y643D02*
D03*
Y675D02*
D03*
Y706D02*
D03*
D11*
X695Y-283D02*
D03*
Y-357D02*
D03*
X620Y-283D02*
D03*
Y-357D02*
D03*
X1805Y723D02*
D03*
Y797D02*
D03*
D12*
X894Y-8D02*
D03*
X819D02*
D03*
X679D02*
D03*
X754D02*
D03*
X2914Y622D02*
D03*
X2839D02*
D03*
X1832Y100D02*
D03*
X1758D02*
D03*
X1827Y595D02*
D03*
X1753D02*
D03*
X1342Y-395D02*
D03*
X1268D02*
D03*
X1342Y-515D02*
D03*
X1268D02*
D03*
X1342Y-210D02*
D03*
X1268D02*
D03*
X1342Y-140D02*
D03*
X1268D02*
D03*
X1342Y-325D02*
D03*
X1268D02*
D03*
D13*
X868Y-206D02*
D03*
Y-231D02*
D03*
Y-257D02*
D03*
Y-282D02*
D03*
Y-308D02*
D03*
Y-334D02*
D03*
Y-359D02*
D03*
Y-385D02*
D03*
Y-410D02*
D03*
Y-436D02*
D03*
Y-462D02*
D03*
Y-487D02*
D03*
Y-513D02*
D03*
Y-538D02*
D03*
X1140Y-206D02*
D03*
Y-231D02*
D03*
Y-257D02*
D03*
Y-282D02*
D03*
Y-308D02*
D03*
Y-334D02*
D03*
Y-359D02*
D03*
Y-385D02*
D03*
Y-410D02*
D03*
Y-436D02*
D03*
Y-462D02*
D03*
Y-487D02*
D03*
Y-513D02*
D03*
Y-538D02*
D03*
D29*
X1476Y-1043D02*
D03*
D38*
Y1043D02*
D03*
M02*
