G04 Layer_Physical_Order=1*
G04 Layer_Color=255*
%FSLAX23Y23*%
%MOIN*%
G70*
G01*
G75*
%ADD10R,0.059X0.051*%
%ADD11R,0.051X0.059*%
%ADD12O,0.083X0.014*%
%ADD13R,0.138X0.022*%
%ADD14C,0.020*%
%ADD15C,0.010*%
%ADD16C,0.014*%
%ADD17C,0.020*%
%ADD18C,0.015*%
%ADD19C,0.022*%
%ADD20C,0.060*%
%ADD21R,0.060X0.060*%
%ADD22C,0.100*%
%ADD23C,0.047*%
%ADD24C,0.118*%
%ADD25C,0.157*%
%ADD26R,0.059X0.059*%
%ADD27C,0.059*%
%ADD28C,0.028*%
%ADD29C,0.079*%
G36*
X2978Y739D02*
X2979Y739D01*
X2979Y738D01*
X2983Y730D01*
X2991Y721D01*
X3001Y713D01*
X3011Y707D01*
X3023Y703D01*
X3035Y702D01*
Y702D01*
X3069D01*
X3071Y698D01*
X3071D01*
Y682D01*
X3150D01*
Y672D01*
X3071D01*
Y656D01*
Y651D01*
X3150D01*
Y641D01*
X3071D01*
Y625D01*
Y593D01*
Y588D01*
X3150D01*
Y578D01*
X3071D01*
Y562D01*
Y530D01*
Y499D01*
Y467D01*
Y462D01*
X3150D01*
Y452D01*
X3071D01*
Y442D01*
X2782D01*
X2617Y607D01*
X2612Y611D01*
X2605Y612D01*
X1898D01*
Y635D01*
X1827D01*
Y635D01*
X1823D01*
Y635D01*
X1752D01*
Y621D01*
X903D01*
X896Y619D01*
X891Y616D01*
X870Y596D01*
X845D01*
X844Y599D01*
X837Y607D01*
X829Y613D01*
X819Y617D01*
X809Y619D01*
X798Y617D01*
X789Y613D01*
X780Y607D01*
X774Y599D01*
X770Y589D01*
X769Y578D01*
X769Y576D01*
X766Y573D01*
X752D01*
X748Y578D01*
X751Y583D01*
X752Y594D01*
X751Y604D01*
X747Y614D01*
X740Y622D01*
X732Y628D01*
X722Y632D01*
X712Y634D01*
X701Y632D01*
X691Y628D01*
X683Y622D01*
X677Y614D01*
X673Y604D01*
X671Y594D01*
X673Y583D01*
X677Y573D01*
X683Y565D01*
X691Y559D01*
X697Y556D01*
Y551D01*
X691Y549D01*
X683Y542D01*
X677Y534D01*
X673Y524D01*
X671Y514D01*
X673Y503D01*
X677Y493D01*
X683Y485D01*
X691Y479D01*
X697Y476D01*
Y471D01*
X691Y469D01*
X683Y462D01*
X677Y454D01*
X673Y444D01*
X671Y434D01*
X673Y423D01*
X677Y414D01*
X683Y405D01*
X691Y399D01*
X697Y396D01*
Y391D01*
X691Y389D01*
X683Y382D01*
X677Y374D01*
X673Y364D01*
X671Y354D01*
X673Y343D01*
X677Y334D01*
X683Y325D01*
X691Y319D01*
X697Y317D01*
Y311D01*
X691Y309D01*
X683Y302D01*
X677Y294D01*
X673Y284D01*
X671Y274D01*
X673Y263D01*
X677Y254D01*
X683Y245D01*
X691Y239D01*
X690Y234D01*
X672D01*
Y154D01*
X694D01*
Y74D01*
X695Y67D01*
X699Y61D01*
X722Y38D01*
X720Y34D01*
X711D01*
X710Y34D01*
X706D01*
X705Y34D01*
X676D01*
Y-6D01*
Y-45D01*
X705D01*
X706Y-45D01*
X710D01*
X711Y-45D01*
X845D01*
X846Y-45D01*
X850D01*
X851Y-45D01*
X921D01*
Y-26D01*
X966D01*
X969Y-28D01*
X978Y-30D01*
X987Y-28D01*
X995Y-23D01*
X1001Y-15D01*
X1002Y-6D01*
X1001Y3D01*
X995Y11D01*
X987Y16D01*
X978Y18D01*
X969Y16D01*
X966Y14D01*
X921D01*
Y34D01*
X851D01*
X850Y34D01*
X846D01*
X845Y34D01*
X763D01*
Y40D01*
X762Y47D01*
X758Y52D01*
X758Y52D01*
X730Y81D01*
Y154D01*
X752D01*
Y234D01*
X733D01*
X732Y239D01*
X740Y245D01*
X747Y254D01*
X751Y263D01*
X751Y265D01*
X970Y265D01*
X1111Y124D01*
X3007D01*
X3008Y119D01*
X3001Y115D01*
X2991Y107D01*
X2983Y98D01*
X2978Y87D01*
X2974Y75D01*
X2973Y63D01*
X2974Y51D01*
X2978Y39D01*
X2983Y28D01*
X2991Y19D01*
X3001Y11D01*
X3009Y6D01*
X3008Y1D01*
X1925D01*
Y24D01*
X1855D01*
X1854Y24D01*
X1850D01*
X1849Y24D01*
X1779D01*
Y1D01*
X1178D01*
X1058Y121D01*
X1053Y125D01*
X1046Y126D01*
X845D01*
X844Y129D01*
X837Y138D01*
X829Y144D01*
X819Y148D01*
X809Y149D01*
X798Y148D01*
X789Y144D01*
X780Y138D01*
X774Y129D01*
X770Y120D01*
X769Y109D01*
X770Y99D01*
X774Y89D01*
X780Y81D01*
X789Y74D01*
X798Y70D01*
X809Y69D01*
X819Y70D01*
X829Y74D01*
X837Y81D01*
X844Y89D01*
X845Y92D01*
X1039D01*
X1159Y-28D01*
X1165Y-32D01*
X1171Y-33D01*
X1779D01*
Y-55D01*
X1849D01*
X1850Y-55D01*
X1854D01*
X1855Y-55D01*
X1925D01*
Y-33D01*
X3071D01*
Y-68D01*
Y-100D01*
Y-131D01*
Y-163D01*
Y-194D01*
Y-226D01*
Y-257D01*
Y-289D01*
Y-320D01*
Y-352D01*
Y-383D01*
Y-415D01*
Y-446D01*
Y-477D01*
Y-509D01*
Y-540D01*
Y-572D01*
Y-603D01*
Y-635D01*
Y-666D01*
Y-698D01*
X3071D01*
X3069Y-702D01*
X3035D01*
X3030Y-703D01*
X3023Y-704D01*
X3011Y-707D01*
X3001Y-713D01*
X2999Y-714D01*
X2993Y-713D01*
X2992Y-710D01*
X2990Y-708D01*
X2989Y-705D01*
X2988Y-705D01*
X2988Y-704D01*
X2985Y-702D01*
X2982Y-700D01*
X2982Y-700D01*
X2981Y-700D01*
X2978Y-700D01*
X2974Y-699D01*
X582D01*
Y-549D01*
X581Y-544D01*
X585Y-539D01*
X614D01*
X621Y-538D01*
X626Y-534D01*
X668Y-493D01*
X672Y-487D01*
X673Y-480D01*
X673Y-480D01*
Y-393D01*
X695D01*
Y-393D01*
X770D01*
Y-323D01*
X770Y-322D01*
Y-318D01*
X770Y-317D01*
Y-304D01*
X774Y-301D01*
X776Y-302D01*
X785Y-304D01*
X795Y-302D01*
X802Y-297D01*
X808Y-289D01*
X810Y-280D01*
X808Y-271D01*
X802Y-263D01*
X795Y-258D01*
X785Y-256D01*
X776Y-258D01*
X774Y-259D01*
X770Y-256D01*
Y-247D01*
X660D01*
Y-283D01*
X655D01*
Y-288D01*
X616D01*
Y-317D01*
X616Y-318D01*
Y-322D01*
X616Y-323D01*
Y-393D01*
X637D01*
Y-473D01*
X606Y-504D01*
X585D01*
X581Y-499D01*
X582Y-494D01*
Y573D01*
Y735D01*
X1791D01*
X1795Y736D01*
X1801D01*
Y716D01*
X1840D01*
X1880D01*
Y736D01*
X1885D01*
X1889Y735D01*
X2960D01*
X2961Y735D01*
X2961Y735D01*
X2965Y736D01*
X2968Y736D01*
X2968Y737D01*
X2969Y737D01*
X2972Y739D01*
X2973Y740D01*
X2973Y740D01*
X2978Y739D01*
D02*
G37*
G36*
X2938Y1097D02*
X2939Y1097D01*
D01*
X2944Y1096D01*
X2948Y1095D01*
X2956Y1090D01*
X2962Y1082D01*
X2963Y1074D01*
X2963Y1072D01*
Y765D01*
X2963Y763D01*
X2964Y759D01*
X2960Y755D01*
X1889D01*
Y756D01*
X1880D01*
Y780D01*
X1840D01*
Y785D01*
D01*
Y780D01*
X1801D01*
Y756D01*
X1791D01*
Y755D01*
X562D01*
Y-494D01*
X470D01*
X467Y-491D01*
X458Y-484D01*
X447Y-479D01*
X436Y-478D01*
X425Y-479D01*
X414Y-484D01*
X405Y-491D01*
X400Y-498D01*
X399Y-498D01*
X394D01*
X394Y-498D01*
X388Y-491D01*
X379Y-484D01*
X369Y-479D01*
X357Y-478D01*
X346Y-479D01*
X336Y-484D01*
X326Y-491D01*
X320Y-500D01*
X315Y-510D01*
X314Y-522D01*
X315Y-533D01*
X320Y-543D01*
X326Y-553D01*
X336Y-559D01*
X346Y-564D01*
X357Y-565D01*
X369Y-564D01*
X379Y-559D01*
X388Y-553D01*
X394Y-545D01*
X394Y-545D01*
X399D01*
X400Y-545D01*
X405Y-553D01*
X414Y-559D01*
X425Y-564D01*
X436Y-565D01*
X447Y-564D01*
X458Y-559D01*
X467Y-553D01*
X470Y-549D01*
X562D01*
Y-719D01*
X2974D01*
X2976Y-724D01*
X2975Y-725D01*
X2969Y-738D01*
X2964Y-751D01*
X2963Y-765D01*
X2963D01*
X2963Y-766D01*
Y-1075D01*
X2962Y-1082D01*
X2956Y-1090D01*
X2948Y-1095D01*
X2939Y-1097D01*
X2938Y-1097D01*
X50D01*
X49Y-1097D01*
X40Y-1095D01*
X32Y-1090D01*
X27Y-1082D01*
X25Y-1073D01*
X25Y-1072D01*
Y-986D01*
Y755D01*
Y1072D01*
X25Y1073D01*
X27Y1082D01*
X32Y1090D01*
X40Y1095D01*
X45Y1096D01*
X50Y1097D01*
Y1097D01*
X50Y1097D01*
X2938D01*
D02*
G37*
G36*
X1752Y555D02*
X1823D01*
Y555D01*
X1827D01*
Y555D01*
X1898D01*
Y578D01*
X2598D01*
X2763Y413D01*
X2768Y409D01*
X2775Y408D01*
X3071D01*
Y399D01*
X3150D01*
Y389D01*
X3071D01*
Y377D01*
X1303D01*
X1108Y573D01*
X903Y573D01*
X901Y577D01*
X910Y586D01*
X1752D01*
Y555D01*
D02*
G37*
%LPC*%
G36*
X1413Y-400D02*
X1383D01*
Y-435D01*
X1413D01*
Y-400D01*
D02*
G37*
G36*
X1550Y-475D02*
X1516D01*
Y-510D01*
X1550D01*
Y-475D01*
D02*
G37*
G36*
X1595Y-520D02*
X1560D01*
Y-555D01*
X1595D01*
Y-520D01*
D02*
G37*
G36*
X1383Y-475D02*
Y-510D01*
X1413D01*
Y-475D01*
X1383D01*
D02*
G37*
G36*
X1595D02*
X1560D01*
Y-510D01*
X1595D01*
Y-475D01*
D02*
G37*
G36*
X650Y-247D02*
X616D01*
Y-278D01*
X650D01*
Y-247D01*
D02*
G37*
G36*
X1342Y-100D02*
X1338D01*
X1337Y-100D01*
X1267D01*
Y-116D01*
X987D01*
X981Y-117D01*
X975Y-121D01*
X940Y-156D01*
X852D01*
X846Y-157D01*
X840Y-161D01*
X828Y-173D01*
X824Y-178D01*
X823Y-185D01*
Y-301D01*
X824Y-308D01*
X828Y-313D01*
X835Y-320D01*
X841Y-324D01*
X847Y-325D01*
X849Y-325D01*
X849Y-325D01*
X852Y-329D01*
X852Y-334D01*
X853Y-340D01*
X854Y-342D01*
X856Y-346D01*
X854Y-350D01*
X853Y-353D01*
X853Y-354D01*
X903D01*
X954D01*
X954Y-353D01*
X952Y-350D01*
X950Y-346D01*
X952Y-342D01*
X954Y-340D01*
X955Y-334D01*
X954Y-327D01*
X952Y-325D01*
X950Y-321D01*
X952Y-317D01*
X954Y-315D01*
X955Y-308D01*
X954Y-303D01*
X957Y-298D01*
X961D01*
X970Y-306D01*
Y-445D01*
X971Y-451D01*
X974Y-456D01*
X1017Y-498D01*
X1022Y-501D01*
X1027Y-502D01*
X1043D01*
X1045Y-507D01*
X1045Y-507D01*
X1040Y-511D01*
X1040Y-511D01*
X1019Y-532D01*
X1016Y-533D01*
X1008Y-538D01*
X1003Y-546D01*
X1001Y-555D01*
X1003Y-564D01*
X1008Y-572D01*
X1016Y-577D01*
X1025Y-579D01*
X1035Y-577D01*
X1042Y-572D01*
X1044Y-572D01*
X1047D01*
X1048Y-572D01*
X1056Y-577D01*
X1065Y-579D01*
X1075Y-577D01*
X1082Y-572D01*
X1086Y-567D01*
X1089D01*
X1096Y-565D01*
X1101Y-561D01*
X1105Y-558D01*
X1134D01*
X1141Y-556D01*
X1141Y-556D01*
X1175D01*
X1178Y-556D01*
X1209D01*
X1216Y-554D01*
X1222Y-550D01*
X1225Y-545D01*
X1227Y-538D01*
X1225Y-532D01*
X1224Y-529D01*
X1222Y-526D01*
X1224Y-522D01*
X1225Y-519D01*
X1227Y-513D01*
X1226Y-507D01*
X1228Y-502D01*
X1242D01*
X1265Y-526D01*
X1267Y-527D01*
Y-555D01*
X1337D01*
X1338Y-555D01*
X1342D01*
X1343Y-555D01*
X1373D01*
Y-515D01*
Y-475D01*
X1343D01*
X1342Y-475D01*
X1338D01*
X1337Y-475D01*
X1267D01*
Y-478D01*
X1263Y-480D01*
X1259Y-476D01*
X1254Y-473D01*
X1248Y-472D01*
X1228D01*
X1226Y-467D01*
X1226Y-467D01*
X1175D01*
X1124D01*
X1124Y-467D01*
X1121Y-472D01*
X1034D01*
X1001Y-439D01*
Y-300D01*
X999Y-294D01*
X996Y-289D01*
X979Y-272D01*
X974Y-268D01*
X968Y-267D01*
X957D01*
X954Y-262D01*
X955Y-257D01*
X954Y-250D01*
X952Y-248D01*
X950Y-244D01*
X952Y-240D01*
X954Y-238D01*
X955Y-231D01*
X954Y-226D01*
X954Y-225D01*
X958Y-222D01*
X965Y-223D01*
X971Y-222D01*
X977Y-218D01*
X1014Y-180D01*
X1243D01*
X1267Y-205D01*
Y-250D01*
X1337D01*
X1338Y-250D01*
X1342D01*
X1343Y-250D01*
X1413D01*
Y-244D01*
X1418Y-242D01*
X1503Y-327D01*
X1509Y-331D01*
X1515Y-332D01*
X1520D01*
X1521Y-335D01*
X1527Y-343D01*
X1535Y-350D01*
X1545Y-353D01*
X1555Y-355D01*
X1566Y-353D01*
X1575Y-350D01*
X1583Y-343D01*
X1590Y-335D01*
X1594Y-325D01*
X1595Y-315D01*
X1594Y-305D01*
X1590Y-295D01*
X1583Y-287D01*
X1575Y-280D01*
X1566Y-276D01*
X1555Y-275D01*
X1545Y-276D01*
X1535Y-280D01*
X1527Y-287D01*
X1523Y-292D01*
X1517Y-292D01*
X1425Y-201D01*
X1420Y-197D01*
X1413Y-196D01*
Y-157D01*
X1423D01*
X1493Y-227D01*
X1499Y-231D01*
X1505Y-232D01*
X1520D01*
X1521Y-235D01*
X1527Y-243D01*
X1535Y-250D01*
X1545Y-253D01*
X1555Y-255D01*
X1566Y-253D01*
X1575Y-250D01*
X1583Y-243D01*
X1590Y-235D01*
X1594Y-225D01*
X1595Y-215D01*
X1594Y-205D01*
X1590Y-195D01*
X1583Y-187D01*
X1575Y-180D01*
X1566Y-176D01*
X1555Y-175D01*
X1545Y-176D01*
X1535Y-180D01*
X1527Y-187D01*
X1521Y-195D01*
X1520Y-198D01*
X1512D01*
X1442Y-128D01*
X1437Y-124D01*
X1430Y-123D01*
X1413D01*
Y-100D01*
X1343D01*
X1342Y-100D01*
D02*
G37*
G36*
X1226Y-262D02*
X1175D01*
X1124D01*
X1125Y-263D01*
X1126Y-266D01*
X1128Y-270D01*
X1126Y-274D01*
X1125Y-276D01*
X1124Y-277D01*
X1175D01*
X1226D01*
X1225Y-276D01*
X1224Y-274D01*
X1222Y-270D01*
X1224Y-266D01*
X1225Y-263D01*
X1226Y-262D01*
D02*
G37*
G36*
Y-287D02*
X1175D01*
X1124D01*
X1125Y-289D01*
X1126Y-291D01*
X1128Y-295D01*
X1126Y-299D01*
X1125Y-301D01*
X1123Y-308D01*
X1125Y-315D01*
X1126Y-317D01*
X1128Y-321D01*
X1126Y-325D01*
X1125Y-327D01*
X1123Y-334D01*
X1125Y-340D01*
X1128Y-346D01*
Y-347D01*
X1125Y-353D01*
X1123Y-359D01*
X1125Y-366D01*
X1126Y-368D01*
X1128Y-372D01*
X1126Y-376D01*
X1125Y-378D01*
X1124Y-380D01*
X1175D01*
X1226D01*
X1225Y-378D01*
X1224Y-376D01*
X1222Y-372D01*
X1224Y-368D01*
X1225Y-366D01*
X1227Y-359D01*
X1225Y-353D01*
X1222Y-347D01*
Y-346D01*
X1225Y-340D01*
X1227Y-334D01*
X1225Y-327D01*
X1224Y-325D01*
X1222Y-321D01*
X1224Y-317D01*
X1225Y-315D01*
X1227Y-308D01*
X1225Y-301D01*
X1224Y-299D01*
X1222Y-295D01*
X1224Y-291D01*
X1225Y-289D01*
X1226Y-287D01*
D02*
G37*
G36*
X1342Y-285D02*
X1338D01*
X1337Y-285D01*
X1267D01*
Y-365D01*
X1267D01*
Y-395D01*
X1228D01*
X1226Y-390D01*
X1226Y-390D01*
X1175D01*
X1124D01*
X1124Y-390D01*
X1121Y-395D01*
X1083D01*
X1082Y-393D01*
X1074Y-388D01*
X1065Y-386D01*
X1055Y-388D01*
X1048Y-393D01*
X1042Y-401D01*
X1040Y-410D01*
X1042Y-420D01*
X1048Y-428D01*
X1055Y-433D01*
X1065Y-435D01*
X1074Y-433D01*
X1082Y-428D01*
X1083Y-426D01*
X1121D01*
X1124Y-431D01*
X1123Y-436D01*
X1125Y-443D01*
X1126Y-445D01*
X1128Y-449D01*
X1126Y-453D01*
X1125Y-455D01*
X1124Y-457D01*
X1175D01*
X1226D01*
X1225Y-455D01*
X1224Y-453D01*
X1222Y-449D01*
X1224Y-445D01*
X1225Y-443D01*
X1227Y-436D01*
X1226Y-431D01*
X1228Y-426D01*
X1267D01*
Y-435D01*
X1337D01*
X1338Y-435D01*
X1342D01*
X1343Y-435D01*
X1373D01*
Y-395D01*
X1378D01*
Y-390D01*
X1413D01*
Y-365D01*
Y-330D01*
X1378D01*
Y-325D01*
X1373D01*
Y-285D01*
X1343D01*
X1342Y-285D01*
D02*
G37*
G36*
X1383Y-285D02*
Y-320D01*
X1413D01*
Y-285D01*
X1383D01*
D02*
G37*
G36*
X954Y-364D02*
X903D01*
X853D01*
X853Y-366D01*
X854Y-368D01*
X856Y-372D01*
X854Y-376D01*
X853Y-378D01*
X852Y-385D01*
X853Y-391D01*
X854Y-394D01*
X856Y-398D01*
X854Y-401D01*
X853Y-404D01*
X852Y-410D01*
X853Y-417D01*
X854Y-419D01*
X856Y-423D01*
X854Y-427D01*
X853Y-429D01*
X852Y-436D01*
X853Y-443D01*
X854Y-445D01*
X856Y-449D01*
X854Y-453D01*
X853Y-455D01*
X852Y-462D01*
X853Y-468D01*
X854Y-470D01*
X856Y-474D01*
X854Y-478D01*
X853Y-481D01*
X852Y-487D01*
X853Y-494D01*
X854Y-496D01*
X856Y-500D01*
X854Y-504D01*
X853Y-506D01*
X852Y-513D01*
X853Y-519D01*
X854Y-522D01*
X856Y-526D01*
X854Y-529D01*
X853Y-532D01*
X852Y-538D01*
X853Y-545D01*
X857Y-550D01*
X862Y-554D01*
X869Y-556D01*
X938D01*
X944Y-554D01*
X950Y-550D01*
X954Y-545D01*
X955Y-538D01*
X954Y-532D01*
X952Y-529D01*
X950Y-526D01*
X952Y-522D01*
X954Y-519D01*
X955Y-513D01*
X954Y-506D01*
X952Y-504D01*
X950Y-500D01*
X952Y-496D01*
X954Y-494D01*
X955Y-487D01*
X954Y-481D01*
X952Y-478D01*
X950Y-474D01*
X952Y-470D01*
X954Y-468D01*
X955Y-462D01*
X954Y-455D01*
X952Y-453D01*
X950Y-449D01*
X952Y-445D01*
X954Y-443D01*
X955Y-436D01*
X954Y-429D01*
X952Y-427D01*
X950Y-423D01*
X952Y-419D01*
X954Y-417D01*
X955Y-410D01*
X954Y-404D01*
X952Y-401D01*
X950Y-398D01*
X952Y-394D01*
X954Y-391D01*
X955Y-385D01*
X954Y-378D01*
X952Y-376D01*
X950Y-372D01*
X952Y-368D01*
X954Y-366D01*
X954Y-364D01*
D02*
G37*
G36*
X1413Y-520D02*
X1383D01*
Y-555D01*
X1413D01*
Y-520D01*
D02*
G37*
G36*
X1550D02*
X1516D01*
Y-555D01*
X1550D01*
Y-520D01*
D02*
G37*
G36*
X1209Y-188D02*
X1140D01*
X1134Y-190D01*
X1128Y-193D01*
X1125Y-199D01*
X1123Y-206D01*
X1125Y-212D01*
X1126Y-215D01*
X1128Y-218D01*
X1126Y-222D01*
X1125Y-225D01*
X1123Y-231D01*
X1125Y-238D01*
X1126Y-240D01*
X1128Y-244D01*
X1126Y-248D01*
X1125Y-250D01*
X1124Y-252D01*
X1175D01*
X1226D01*
X1225Y-250D01*
X1224Y-248D01*
X1222Y-244D01*
X1224Y-240D01*
X1225Y-238D01*
X1227Y-231D01*
X1225Y-225D01*
X1224Y-222D01*
X1222Y-218D01*
X1224Y-215D01*
X1225Y-212D01*
X1227Y-206D01*
X1225Y-199D01*
X1222Y-193D01*
X1216Y-190D01*
X1209Y-188D01*
D02*
G37*
G36*
X1880Y706D02*
X1845D01*
Y675D01*
X1880D01*
Y706D01*
D02*
G37*
G36*
X1835D02*
X1801D01*
Y675D01*
X1835D01*
Y706D01*
D02*
G37*
G36*
X666Y34D02*
X635D01*
Y-1D01*
X666D01*
Y34D01*
D02*
G37*
G36*
Y-11D02*
X635D01*
Y-45D01*
X666D01*
Y-11D01*
D02*
G37*
G36*
X2970Y653D02*
X2890D01*
Y583D01*
X2890Y582D01*
Y578D01*
X2890Y577D01*
Y548D01*
X2930D01*
X2970D01*
Y577D01*
X2970Y578D01*
Y582D01*
X2970Y583D01*
Y602D01*
X2984D01*
X2987Y600D01*
X2996Y598D01*
X3006Y600D01*
X3013Y605D01*
X3019Y613D01*
X3021Y622D01*
X3019Y631D01*
X3013Y639D01*
X3006Y644D01*
X2996Y646D01*
X2987Y644D01*
X2984Y642D01*
X2970D01*
Y653D01*
D02*
G37*
G36*
X809Y719D02*
X798Y717D01*
X789Y713D01*
X780Y707D01*
X774Y699D01*
X770Y689D01*
X769Y678D01*
X770Y668D01*
X774Y658D01*
X780Y650D01*
X789Y643D01*
X798Y639D01*
X809Y638D01*
X819Y639D01*
X829Y643D01*
X837Y650D01*
X844Y658D01*
X848Y668D01*
X849Y678D01*
X848Y689D01*
X844Y699D01*
X837Y707D01*
X829Y713D01*
X819Y717D01*
X809Y719D01*
D02*
G37*
G36*
X2970Y538D02*
X2935D01*
Y507D01*
X2970D01*
Y538D01*
D02*
G37*
G36*
X809Y249D02*
X798Y248D01*
X789Y244D01*
X780Y238D01*
X774Y229D01*
X770Y220D01*
X769Y209D01*
X770Y199D01*
X774Y189D01*
X780Y181D01*
X789Y174D01*
X798Y170D01*
X809Y169D01*
X819Y170D01*
X829Y174D01*
X837Y181D01*
X844Y189D01*
X848Y199D01*
X849Y209D01*
X848Y220D01*
X844Y229D01*
X837Y238D01*
X829Y244D01*
X819Y248D01*
X809Y249D01*
D02*
G37*
G36*
X2925Y538D02*
X2890D01*
Y507D01*
X2925D01*
Y538D01*
D02*
G37*
G36*
X436Y-380D02*
X425Y-381D01*
X414Y-385D01*
X405Y-392D01*
X400Y-399D01*
X399Y-400D01*
X394D01*
X394Y-399D01*
X388Y-392D01*
X379Y-385D01*
X369Y-381D01*
X357Y-380D01*
X346Y-381D01*
X336Y-385D01*
X326Y-392D01*
X320Y-401D01*
X315Y-412D01*
X314Y-423D01*
X315Y-435D01*
X320Y-445D01*
X326Y-454D01*
X336Y-461D01*
X346Y-465D01*
X357Y-467D01*
X369Y-465D01*
X379Y-461D01*
X388Y-454D01*
X394Y-447D01*
X394Y-447D01*
X399D01*
X400Y-447D01*
X405Y-454D01*
X414Y-461D01*
X425Y-465D01*
X436Y-467D01*
X447Y-465D01*
X458Y-461D01*
X467Y-454D01*
X474Y-445D01*
X478Y-435D01*
X480Y-423D01*
X478Y-412D01*
X474Y-401D01*
X467Y-392D01*
X458Y-385D01*
X447Y-381D01*
X436Y-380D01*
D02*
G37*
G36*
X320Y-240D02*
X256D01*
Y-304D01*
X264Y-303D01*
X277Y-300D01*
X289Y-293D01*
X300Y-284D01*
X308Y-274D01*
X315Y-262D01*
X319Y-249D01*
X320Y-240D01*
D02*
G37*
G36*
X246D02*
X182D01*
X183Y-249D01*
X187Y-262D01*
X193Y-274D01*
X202Y-284D01*
X212Y-293D01*
X224Y-300D01*
X237Y-303D01*
X246Y-304D01*
Y-240D01*
D02*
G37*
G36*
X586Y-856D02*
X573Y-857D01*
X562Y-861D01*
D01*
X556Y-862D01*
X541Y-871D01*
X527Y-882D01*
X516Y-895D01*
X508Y-911D01*
X503Y-927D01*
X502Y-940D01*
X586D01*
Y-856D01*
D02*
G37*
G36*
X596D02*
Y-940D01*
X679D01*
X678Y-927D01*
X673Y-911D01*
X665Y-895D01*
X654Y-882D01*
X640Y-871D01*
X625Y-862D01*
X608Y-857D01*
X596Y-856D01*
D02*
G37*
G36*
X2392D02*
X2380Y-857D01*
X2363Y-862D01*
X2348Y-871D01*
X2334Y-882D01*
X2323Y-895D01*
X2315Y-911D01*
X2310Y-927D01*
X2309Y-940D01*
X2392D01*
Y-856D01*
D02*
G37*
G36*
X2486Y-950D02*
X2402D01*
Y-1034D01*
X2415Y-1032D01*
X2432Y-1027D01*
X2447Y-1019D01*
X2461Y-1008D01*
X2472Y-994D01*
X2480Y-979D01*
X2485Y-962D01*
X2486Y-950D01*
D02*
G37*
G36*
X586D02*
X502D01*
X503Y-962D01*
X508Y-979D01*
X516Y-994D01*
X527Y-1008D01*
X541Y-1019D01*
X556Y-1027D01*
X573Y-1032D01*
X586Y-1034D01*
Y-950D01*
D02*
G37*
G36*
X679D02*
X596D01*
Y-1034D01*
X608Y-1032D01*
X625Y-1027D01*
X640Y-1019D01*
X654Y-1008D01*
X665Y-994D01*
X673Y-979D01*
X678Y-962D01*
X679Y-950D01*
D02*
G37*
G36*
X2392D02*
X2309D01*
X2310Y-962D01*
X2315Y-979D01*
X2323Y-994D01*
X2334Y-1008D01*
X2348Y-1019D01*
X2363Y-1027D01*
X2380Y-1032D01*
X2392Y-1034D01*
Y-950D01*
D02*
G37*
G36*
X2402Y-856D02*
Y-940D01*
X2486D01*
X2485Y-927D01*
X2480Y-911D01*
X2472Y-895D01*
X2461Y-882D01*
X2447Y-871D01*
X2432Y-862D01*
X2415Y-857D01*
X2402Y-856D01*
D02*
G37*
G36*
X256Y-641D02*
Y-704D01*
X320D01*
X319Y-696D01*
X315Y-683D01*
X308Y-671D01*
X300Y-660D01*
X289Y-652D01*
X277Y-645D01*
X264Y-641D01*
X256Y-641D01*
D02*
G37*
G36*
X246Y-714D02*
X182D01*
X183Y-723D01*
X187Y-736D01*
X193Y-748D01*
X202Y-758D01*
X212Y-767D01*
X224Y-774D01*
X237Y-777D01*
X246Y-778D01*
Y-714D01*
D02*
G37*
G36*
X320D02*
X256D01*
Y-778D01*
X264Y-777D01*
X277Y-774D01*
X289Y-767D01*
X300Y-758D01*
X308Y-748D01*
X315Y-736D01*
X319Y-723D01*
X319Y-719D01*
X320Y-714D01*
D02*
G37*
G36*
X246Y-641D02*
X237Y-641D01*
X224Y-645D01*
X212Y-652D01*
X202Y-660D01*
X193Y-671D01*
X187Y-683D01*
X183Y-696D01*
X182Y-704D01*
X246D01*
Y-641D01*
D02*
G37*
G36*
X1835Y821D02*
X1801D01*
Y790D01*
X1835D01*
Y821D01*
D02*
G37*
G36*
X1880D02*
X1845D01*
Y790D01*
X1880D01*
Y821D01*
D02*
G37*
G36*
X586Y940D02*
X502D01*
X503Y928D01*
X508Y911D01*
X516Y895D01*
X527Y882D01*
X541Y871D01*
X556Y863D01*
X573Y857D01*
X586Y856D01*
Y940D01*
D02*
G37*
G36*
X152Y771D02*
Y716D01*
X206D01*
X206Y723D01*
X202Y734D01*
X197Y745D01*
X189Y754D01*
X188Y755D01*
X180Y761D01*
X170Y767D01*
X158Y770D01*
X152Y771D01*
D02*
G37*
G36*
X272Y728D02*
X255Y726D01*
X239Y721D01*
X225Y714D01*
X212Y703D01*
X211Y702D01*
X206Y704D01*
X206Y706D01*
X152D01*
Y651D01*
X158Y652D01*
X170Y656D01*
X180Y661D01*
X185Y665D01*
X190Y663D01*
X189Y660D01*
X187Y644D01*
X189Y627D01*
X194Y612D01*
X202Y597D01*
X212Y584D01*
X225Y574D01*
X239Y566D01*
X255Y561D01*
X272Y560D01*
X288Y561D01*
X304Y566D01*
X318Y574D01*
X331Y584D01*
X341Y597D01*
X349Y612D01*
X354Y627D01*
X356Y644D01*
X354Y660D01*
X349Y676D01*
X341Y690D01*
X331Y703D01*
X318Y714D01*
X304Y721D01*
X288Y726D01*
X272Y728D01*
D02*
G37*
G36*
X142Y771D02*
X135Y770D01*
X124Y767D01*
X113Y761D01*
X105Y755D01*
X104Y754D01*
X97Y745D01*
X91Y734D01*
X88Y723D01*
X87Y716D01*
X142D01*
Y771D01*
D02*
G37*
G36*
X596Y1034D02*
Y950D01*
X679D01*
X678Y962D01*
X673Y979D01*
X665Y994D01*
X654Y1008D01*
X640Y1019D01*
X625Y1027D01*
X608Y1032D01*
X596Y1034D01*
D02*
G37*
G36*
X2392D02*
X2380Y1032D01*
X2363Y1027D01*
X2348Y1019D01*
X2334Y1008D01*
X2323Y994D01*
X2315Y979D01*
X2310Y962D01*
X2309Y950D01*
X2392D01*
Y1034D01*
D02*
G37*
G36*
X2402D02*
Y950D01*
X2486D01*
X2485Y962D01*
X2480Y979D01*
X2472Y994D01*
X2461Y1008D01*
X2447Y1019D01*
X2432Y1027D01*
X2415Y1032D01*
X2402Y1034D01*
D02*
G37*
G36*
X586D02*
X573Y1032D01*
X562Y1029D01*
D01*
X556Y1027D01*
X541Y1019D01*
X527Y1008D01*
X516Y994D01*
X508Y979D01*
X503Y962D01*
X502Y950D01*
X586D01*
Y1034D01*
D02*
G37*
G36*
X679Y940D02*
X596D01*
Y856D01*
X608Y857D01*
X625Y863D01*
X640Y871D01*
X654Y882D01*
X665Y895D01*
X673Y911D01*
X678Y928D01*
X679Y940D01*
D02*
G37*
G36*
X2392D02*
X2309D01*
X2310Y928D01*
X2315Y911D01*
X2323Y895D01*
X2334Y882D01*
X2348Y871D01*
X2363Y863D01*
X2380Y857D01*
X2392Y856D01*
Y940D01*
D02*
G37*
G36*
X2486D02*
X2402D01*
Y856D01*
X2415Y857D01*
X2432Y863D01*
X2447Y871D01*
X2461Y882D01*
X2472Y895D01*
X2480Y911D01*
X2485Y928D01*
X2486Y940D01*
D02*
G37*
G36*
X142Y71D02*
X87D01*
X88Y64D01*
X91Y53D01*
X97Y43D01*
X104Y34D01*
X113Y26D01*
X124Y21D01*
X135Y17D01*
X142Y16D01*
Y71D01*
D02*
G37*
G36*
X206D02*
X152D01*
Y16D01*
X158Y17D01*
X170Y21D01*
X180Y26D01*
X189Y34D01*
X197Y43D01*
X202Y53D01*
X206Y64D01*
X206Y71D01*
D02*
G37*
G36*
X142Y136D02*
X135Y135D01*
X124Y132D01*
X113Y126D01*
X104Y119D01*
X97Y110D01*
X91Y99D01*
X88Y88D01*
X87Y81D01*
X142D01*
Y136D01*
D02*
G37*
G36*
X246Y-167D02*
X237Y-167D01*
X224Y-171D01*
X212Y-178D01*
X202Y-186D01*
X193Y-197D01*
X187Y-209D01*
X183Y-222D01*
X182Y-230D01*
X246D01*
Y-167D01*
D02*
G37*
G36*
X256D02*
Y-230D01*
X320D01*
X319Y-222D01*
X315Y-209D01*
X308Y-197D01*
X300Y-186D01*
X289Y-178D01*
X277Y-171D01*
X264Y-167D01*
X256Y-167D01*
D02*
G37*
G36*
X142Y706D02*
X87D01*
X88Y699D01*
X91Y688D01*
X97Y678D01*
X104Y669D01*
X113Y661D01*
X124Y656D01*
X135Y652D01*
X142Y651D01*
Y706D01*
D02*
G37*
G36*
X272Y228D02*
X255Y226D01*
X239Y221D01*
X225Y214D01*
X212Y203D01*
X202Y190D01*
X194Y176D01*
X189Y160D01*
X187Y144D01*
X189Y127D01*
X190Y125D01*
X185Y122D01*
X180Y126D01*
X170Y132D01*
X158Y135D01*
X152Y136D01*
Y81D01*
X206D01*
X206Y83D01*
X211Y85D01*
X212Y84D01*
X225Y74D01*
X239Y66D01*
X255Y61D01*
X272Y60D01*
X288Y61D01*
X304Y66D01*
X318Y74D01*
X331Y84D01*
X341Y97D01*
X349Y112D01*
X354Y127D01*
X356Y144D01*
X354Y160D01*
X349Y176D01*
X341Y190D01*
X331Y203D01*
X318Y214D01*
X304Y221D01*
X288Y226D01*
X272Y228D01*
D02*
G37*
%LPD*%
D10*
X730Y-283D02*
D03*
Y-357D02*
D03*
X2930Y543D02*
D03*
Y617D02*
D03*
X655Y-283D02*
D03*
Y-357D02*
D03*
X1840Y711D02*
D03*
Y785D02*
D03*
D11*
X886Y-6D02*
D03*
X811D02*
D03*
X671D02*
D03*
X746D02*
D03*
X1890Y-16D02*
D03*
X1815D02*
D03*
X1863Y595D02*
D03*
X1788D02*
D03*
X1378Y-395D02*
D03*
X1303D02*
D03*
X1378Y-515D02*
D03*
X1303D02*
D03*
X1378Y-210D02*
D03*
X1303D02*
D03*
X1378Y-140D02*
D03*
X1303D02*
D03*
X1378Y-325D02*
D03*
X1303D02*
D03*
D12*
X903Y-206D02*
D03*
Y-231D02*
D03*
Y-257D02*
D03*
Y-282D02*
D03*
Y-308D02*
D03*
Y-334D02*
D03*
Y-359D02*
D03*
Y-385D02*
D03*
Y-410D02*
D03*
Y-436D02*
D03*
Y-462D02*
D03*
Y-487D02*
D03*
Y-513D02*
D03*
Y-538D02*
D03*
X1175Y-206D02*
D03*
Y-231D02*
D03*
Y-257D02*
D03*
Y-282D02*
D03*
Y-308D02*
D03*
Y-334D02*
D03*
Y-359D02*
D03*
Y-385D02*
D03*
Y-410D02*
D03*
Y-436D02*
D03*
Y-462D02*
D03*
Y-487D02*
D03*
Y-513D02*
D03*
Y-538D02*
D03*
D13*
X3150Y-677D02*
D03*
Y-646D02*
D03*
Y-614D02*
D03*
Y-583D02*
D03*
Y-551D02*
D03*
Y-520D02*
D03*
Y-488D02*
D03*
Y-457D02*
D03*
Y-425D02*
D03*
Y-394D02*
D03*
Y-362D02*
D03*
Y-331D02*
D03*
Y-299D02*
D03*
Y-268D02*
D03*
Y-236D02*
D03*
Y-205D02*
D03*
Y-173D02*
D03*
Y-142D02*
D03*
Y-110D02*
D03*
Y-79D02*
D03*
Y-47D02*
D03*
Y-16D02*
D03*
Y142D02*
D03*
Y173D02*
D03*
Y205D02*
D03*
Y236D02*
D03*
Y268D02*
D03*
Y299D02*
D03*
Y331D02*
D03*
Y362D02*
D03*
Y394D02*
D03*
Y425D02*
D03*
Y457D02*
D03*
Y488D02*
D03*
Y520D02*
D03*
Y551D02*
D03*
Y583D02*
D03*
Y614D02*
D03*
Y646D02*
D03*
Y677D02*
D03*
D14*
X2939Y622D02*
X2996D01*
X888Y-8D02*
X890Y-6D01*
X978D01*
D15*
X1055Y395D02*
X1170Y280D01*
X1171Y280D01*
X1288Y-410D02*
X1303Y-395D01*
X1065Y-410D02*
X1175D01*
X847Y-308D02*
X903D01*
Y-206D02*
X965D01*
X903Y-282D02*
X968D01*
X985Y-300D01*
Y-445D02*
Y-300D01*
X1175Y-487D02*
X1248D01*
X1276Y-515D01*
X1303D01*
X985Y-445D02*
X1027Y-487D01*
X1175Y-410D02*
X1288D01*
X1027Y-487D02*
X1175D01*
X1171Y280D02*
X1198Y253D01*
X3035D01*
X800Y395D02*
X1055D01*
D16*
X1303Y-325D02*
Y-315D01*
Y-395D02*
Y-325D01*
Y-395D02*
X1303Y-395D01*
X746Y-6D02*
X811D01*
X1779Y604D02*
X1788Y595D01*
X1863D02*
X2605D01*
X1250Y-163D02*
X1300Y-213D01*
X1395D02*
X1413D01*
X965Y-206D02*
X1007Y-163D01*
X1250D01*
X947Y-173D02*
X987Y-133D01*
X1295D01*
X1378Y-140D02*
X1430D01*
X1505Y-215D01*
X1555D01*
X1515Y-315D02*
X1555D01*
X1413Y-213D02*
X1515Y-315D01*
X852Y-173D02*
X947D01*
X840Y-301D02*
X847Y-308D01*
X840Y-301D02*
Y-185D01*
X852Y-173D01*
X712Y-280D02*
X785D01*
X1870Y-16D02*
X1890D01*
X3150D01*
X1171Y-16D02*
X1795D01*
X2775Y425D02*
X3150D01*
X2605Y595D02*
X2775Y425D01*
X809Y109D02*
X1046D01*
X1171Y-16D01*
X809Y578D02*
X878D01*
X903Y604D01*
X1779D01*
D17*
X712Y514D02*
X740Y485D01*
X712Y434D02*
X735Y457D01*
X740Y485D02*
X1090D01*
X1246Y329D02*
X3069D01*
X1090Y485D02*
X1246Y329D01*
X3071Y331D02*
X3150D01*
X3069Y329D02*
X3071Y331D01*
X735Y457D02*
X1079D01*
X3071Y299D02*
X3150D01*
X1079Y457D02*
X1235Y301D01*
X3069D02*
X3071Y299D01*
X1235Y301D02*
X3069D01*
X712Y354D02*
X735Y330D01*
X712Y274D02*
X740Y302D01*
X735Y330D02*
X1035D01*
X1162Y203D02*
X3069D01*
X1035Y330D02*
X1162Y203D01*
X3071Y205D02*
X3150D01*
X3069Y203D02*
X3071Y205D01*
X740Y302D02*
X1024D01*
X3071Y173D02*
X3150D01*
X1024Y302D02*
X1151Y175D01*
X3069D02*
X3071Y173D01*
X1151Y175D02*
X3069D01*
D18*
X746Y-6D02*
Y40D01*
X712Y74D02*
X746Y40D01*
X712Y74D02*
Y194D01*
X436Y-522D02*
X614D01*
X655Y-480D01*
Y-357D01*
X657Y-355D02*
X737D01*
X1021Y-555D02*
X1025D01*
Y-551D01*
X1052Y-524D01*
X1078D01*
X1087Y-515D01*
X1124D01*
X1126Y-513D01*
X1175D01*
X1065Y-555D02*
X1072Y-549D01*
X1089D01*
X1098Y-540D01*
X1134D01*
X1136Y-538D01*
X1175D01*
D19*
X2972Y98D02*
X3016Y142D01*
X3150D01*
X3034Y394D02*
X3150D01*
X3031Y391D02*
X3034Y394D01*
X3060Y362D02*
X3150D01*
X3031Y391D02*
X3060Y362D01*
X3050Y268D02*
X3150D01*
X3035Y253D02*
X3050Y268D01*
X3052Y236D02*
X3150D01*
X3035Y253D02*
X3052Y236D01*
D20*
X712Y594D02*
D03*
Y514D02*
D03*
Y434D02*
D03*
Y354D02*
D03*
Y274D02*
D03*
X809Y109D02*
D03*
Y209D02*
D03*
Y578D02*
D03*
Y678D02*
D03*
D21*
X712Y194D02*
D03*
D22*
X272Y144D02*
D03*
X147Y76D02*
D03*
Y711D02*
D03*
X272Y644D02*
D03*
D23*
X436Y-423D02*
D03*
X357D02*
D03*
X436Y-522D02*
D03*
X357D02*
D03*
D24*
X251Y-235D02*
D03*
Y-709D02*
D03*
D25*
X591Y945D02*
D03*
X2397D02*
D03*
Y-945D02*
D03*
X591D02*
D03*
D26*
X1555Y-515D02*
D03*
D27*
Y-315D02*
D03*
Y-215D02*
D03*
D28*
X785Y-280D02*
D03*
X2872Y42D02*
D03*
Y-68D02*
D03*
X2870Y-260D02*
D03*
X2482Y552D02*
D03*
X2480Y-260D02*
D03*
X2482Y-68D02*
D03*
Y42D02*
D03*
X2082Y-68D02*
D03*
X1425Y-450D02*
D03*
X1095D02*
D03*
X3045Y684D02*
D03*
X978Y-6D02*
D03*
X643Y716D02*
D03*
X1065Y-410D02*
D03*
X3000Y540D02*
D03*
X1532Y552D02*
D03*
X2082D02*
D03*
X1255Y-270D02*
D03*
X2080D02*
D03*
X2082Y42D02*
D03*
X1232D02*
D03*
X1532D02*
D03*
X1210Y550D02*
D03*
X2080Y450D02*
D03*
X1530D02*
D03*
X2480D02*
D03*
X1255Y-450D02*
D03*
X1095Y-270D02*
D03*
X2080Y-470D02*
D03*
X2480Y-460D02*
D03*
X2870D02*
D03*
X1210Y650D02*
D03*
X2082Y652D02*
D03*
X1532D02*
D03*
X2482D02*
D03*
X3042Y581D02*
D03*
X3035Y253D02*
D03*
X3031Y391D02*
D03*
X2996Y622D02*
D03*
X800Y395D02*
D03*
X614Y550D02*
D03*
X618Y313D02*
D03*
X898Y164D02*
D03*
X1035Y46D02*
D03*
Y-71D02*
D03*
X774Y-120D02*
D03*
X1025Y-555D02*
D03*
X1065D02*
D03*
D29*
X941Y-1043D02*
D03*
Y1043D02*
D03*
X1925D02*
D03*
X1433D02*
D03*
X1925Y-1043D02*
D03*
X1433D02*
D03*
M02*
