G04 Layer_Color=65535*
%FSLAX23Y23*%
%MOIN*%
G70*
G01*
G75*
%ADD14C,0.020*%
%ADD15C,0.010*%
%ADD31C,0.010*%
%ADD32C,0.024*%
%ADD33C,0.008*%
%ADD34C,0.004*%
%ADD35C,0.005*%
%ADD36C,0.008*%
%ADD37C,0.007*%
%ADD38C,0.006*%
G36*
X2844Y-819D02*
X2844Y-819D01*
Y-820D01*
Y-820D01*
X2848Y-840D01*
Y-840D01*
X2848Y-840D01*
X2849Y-841D01*
X2849D01*
X2862Y-846D01*
X2864D01*
X2880Y-835D01*
X2881D01*
X2881Y-835D01*
X2896Y-849D01*
Y-849D01*
Y-850D01*
Y-850D01*
Y-850D01*
X2884Y-867D01*
Y-867D01*
Y-867D01*
Y-867D01*
Y-868D01*
Y-868D01*
X2890Y-882D01*
X2891Y-882D01*
X2891Y-883D01*
X2891D01*
X2910Y-886D01*
X2911D01*
X2911Y-886D01*
Y-887D01*
Y-887D01*
Y-907D01*
X2911Y-907D01*
X2911Y-908D01*
X2910D01*
X2892Y-912D01*
X2891D01*
X2891Y-912D01*
Y-912D01*
Y-912D01*
X2885Y-927D01*
Y-928D01*
Y-928D01*
Y-928D01*
Y-928D01*
X2896Y-944D01*
Y-944D01*
Y-945D01*
Y-945D01*
X2881Y-959D01*
X2881Y-959D01*
X2881D01*
X2880Y-959D01*
X2865Y-949D01*
X2864D01*
X2857Y-953D01*
X2856Y-952D01*
X2856Y-952D01*
X2842Y-918D01*
X2842Y-917D01*
X2843Y-917D01*
X2844Y-916D01*
X2844Y-916D01*
X2845D01*
X2845Y-915D01*
X2845Y-915D01*
X2849Y-913D01*
X2851Y-910D01*
X2853Y-907D01*
X2854Y-904D01*
X2854Y-902D01*
X2855Y-899D01*
X2855Y-898D01*
Y-897D01*
X2855Y-894D01*
X2854Y-891D01*
X2853Y-888D01*
X2852Y-886D01*
X2851Y-884D01*
X2850Y-883D01*
X2849Y-882D01*
X2849Y-882D01*
X2846Y-880D01*
X2844Y-878D01*
X2841Y-877D01*
X2839Y-876D01*
X2836Y-875D01*
X2835Y-875D01*
X2833D01*
X2830Y-875D01*
X2827Y-876D01*
X2824Y-877D01*
X2822Y-878D01*
X2821Y-880D01*
X2819Y-881D01*
X2818Y-882D01*
X2818Y-882D01*
X2816Y-884D01*
X2814Y-887D01*
X2813Y-890D01*
X2813Y-892D01*
X2812Y-894D01*
X2812Y-896D01*
Y-897D01*
Y-897D01*
X2812Y-902D01*
X2813Y-905D01*
X2815Y-908D01*
X2817Y-911D01*
X2819Y-913D01*
X2820Y-914D01*
X2821Y-915D01*
X2822Y-915D01*
X2822Y-916D01*
X2822Y-916D01*
X2823Y-916D01*
X2824Y-917D01*
X2825Y-918D01*
Y-918D01*
Y-918D01*
X2811Y-952D01*
X2811Y-952D01*
X2810Y-953D01*
X2810D01*
X2803Y-949D01*
X2802D01*
X2787Y-959D01*
X2786Y-959D01*
X2786D01*
X2785Y-959D01*
X2771Y-945D01*
Y-945D01*
Y-945D01*
Y-944D01*
X2782Y-928D01*
Y-928D01*
Y-928D01*
Y-927D01*
Y-927D01*
X2776Y-912D01*
X2776Y-912D01*
X2775Y-912D01*
X2775D01*
X2756Y-908D01*
X2756Y-907D01*
X2756Y-907D01*
Y-907D01*
Y-887D01*
Y-886D01*
X2756Y-886D01*
X2756D01*
X2775Y-883D01*
X2776Y-882D01*
X2776Y-882D01*
Y-882D01*
X2783Y-868D01*
Y-868D01*
Y-867D01*
Y-867D01*
Y-867D01*
X2771Y-850D01*
Y-850D01*
Y-850D01*
Y-849D01*
Y-849D01*
X2785Y-835D01*
X2786Y-835D01*
X2787D01*
X2803Y-846D01*
X2804D01*
X2818Y-841D01*
X2818Y-840D01*
X2819Y-840D01*
Y-840D01*
Y-840D01*
X2823Y-820D01*
Y-819D01*
X2823Y-819D01*
X2843D01*
X2844Y-819D01*
D02*
G37*
G36*
X1585Y-635D02*
X1520D01*
X1555Y-580D01*
X1585Y-635D01*
D02*
G37*
D14*
X0Y-787D02*
X787D01*
Y-1083D02*
Y-787D01*
X0Y787D02*
X787D01*
Y1083D01*
X2137Y-1100D02*
Y1100D01*
Y-1100D02*
X2657D01*
Y1100D01*
X2137D02*
X2657D01*
X1917Y-320D02*
X2059D01*
X2015Y-364D02*
X2059Y-320D01*
X2015Y-364D02*
Y-277D01*
X2058Y-320D01*
X1921Y-213D02*
X1964Y-256D01*
Y-169D01*
X1920Y-213D02*
X1964Y-169D01*
X1920Y-213D02*
X2062D01*
D15*
X-153Y63D02*
Y724D01*
X-43Y509D02*
Y699D01*
Y89D02*
Y279D01*
Y299D02*
Y489D01*
X-153Y724D02*
X55D01*
X-153Y63D02*
X55D01*
X350D02*
X760D01*
X331Y724D02*
X760D01*
X854Y256D02*
Y532D01*
X-154Y-235D02*
X177D01*
X323D02*
X476D01*
X323Y-709D02*
X476D01*
X-154D02*
X177D01*
D31*
X908Y-177D02*
G03*
X908Y-177I-5J0D01*
G01*
D32*
X1012Y-205D02*
G03*
X1012Y-205I-12J0D01*
G01*
D33*
X-154Y-709D02*
Y-235D01*
X476Y-709D02*
Y-235D01*
X1605Y-168D02*
X1655D01*
Y-562D02*
Y-168D01*
X1605Y-562D02*
X1655D01*
Y-532D02*
X1789D01*
X1805Y-515D01*
X1789Y-498D02*
X1805Y-515D01*
X1655Y-498D02*
X1789D01*
X1655Y-332D02*
X1789D01*
X1805Y-315D01*
X1789Y-298D02*
X1805Y-315D01*
X1655Y-298D02*
X1789D01*
X1655Y-232D02*
X1789D01*
X1805Y-215D01*
X1789Y-198D02*
X1805Y-215D01*
X1655Y-198D02*
X1789D01*
X1605Y-562D02*
Y-168D01*
Y-544D02*
X1622Y-561D01*
X960Y-579D02*
Y-165D01*
X1118Y-579D02*
Y-165D01*
X960D02*
X1118D01*
X960Y-579D02*
X1118D01*
D34*
X701Y-320D02*
X760D01*
X848Y-36D02*
Y24D01*
X708Y-36D02*
Y24D01*
X2900Y580D02*
X2960D01*
X626Y-320D02*
X685D01*
X1811Y748D02*
X1870D01*
X1852Y-45D02*
Y14D01*
X1825Y565D02*
Y625D01*
X1266Y-425D02*
Y-365D01*
X1340Y-425D02*
Y-365D01*
Y-545D02*
Y-485D01*
Y-240D02*
Y-180D01*
Y-170D02*
Y-110D01*
Y-355D02*
Y-295D01*
D35*
X1457Y-312D02*
X1450Y-305D01*
X1437D01*
X1430Y-312D01*
Y-338D01*
X1437Y-345D01*
X1450D01*
X1457Y-338D01*
X1470Y-345D02*
X1484D01*
X1477D01*
Y-305D01*
X1470Y-312D01*
X698Y-192D02*
Y-232D01*
X725D01*
X765D02*
X738D01*
X765Y-205D01*
Y-199D01*
X758Y-192D01*
X745D01*
X738Y-199D01*
X1430Y-160D02*
Y-120D01*
X1450D01*
X1457Y-127D01*
Y-140D01*
X1450Y-147D01*
X1430D01*
X1444D02*
X1457Y-160D01*
X1497Y-120D02*
X1484Y-127D01*
X1470Y-140D01*
Y-153D01*
X1477Y-160D01*
X1490D01*
X1497Y-153D01*
Y-147D01*
X1490Y-140D01*
X1470D01*
X1430Y-230D02*
Y-190D01*
X1450D01*
X1457Y-197D01*
Y-210D01*
X1450Y-217D01*
X1430D01*
X1444D02*
X1457Y-230D01*
X1497Y-190D02*
X1470D01*
Y-210D01*
X1484Y-203D01*
X1490D01*
X1497Y-210D01*
Y-223D01*
X1490Y-230D01*
X1477D01*
X1470Y-223D01*
X640Y-199D02*
X633Y-192D01*
X620D01*
X613Y-199D01*
Y-225D01*
X620Y-232D01*
X633D01*
X640Y-225D01*
X680Y-192D02*
X653D01*
Y-212D01*
X667Y-205D01*
X673D01*
X680Y-212D01*
Y-225D01*
X673Y-232D01*
X660D01*
X653Y-225D01*
X1457Y-502D02*
X1450Y-495D01*
X1437D01*
X1430Y-502D01*
Y-528D01*
X1437Y-535D01*
X1450D01*
X1457Y-528D01*
X1490Y-535D02*
Y-495D01*
X1470Y-515D01*
X1497D01*
X1457Y-382D02*
X1450Y-375D01*
X1437D01*
X1430Y-382D01*
Y-408D01*
X1437Y-415D01*
X1450D01*
X1457Y-408D01*
X1470Y-382D02*
X1477Y-375D01*
X1490D01*
X1497Y-382D01*
Y-388D01*
X1490Y-395D01*
X1484D01*
X1490D01*
X1497Y-402D01*
Y-408D01*
X1490Y-415D01*
X1477D01*
X1470Y-408D01*
X816Y-93D02*
Y-53D01*
X836D01*
X843Y-60D01*
Y-73D01*
X836Y-80D01*
X816D01*
X830D02*
X843Y-93D01*
X876D02*
Y-53D01*
X856Y-73D01*
X883D01*
X2890Y450D02*
Y490D01*
X2910D01*
X2917Y483D01*
Y470D01*
X2910Y463D01*
X2890D01*
X2903D02*
X2917Y450D01*
X2930Y483D02*
X2937Y490D01*
X2950D01*
X2957Y483D01*
Y477D01*
X2950Y470D01*
X2943D01*
X2950D01*
X2957Y463D01*
Y457D01*
X2950Y450D01*
X2937D01*
X2930Y457D01*
X1815Y888D02*
Y848D01*
X1842D01*
X1855D02*
X1869D01*
X1862D01*
Y888D01*
X1855Y881D01*
X705Y-63D02*
X698Y-56D01*
X685D01*
X678Y-63D01*
Y-89D01*
X685Y-96D01*
X698D01*
X705Y-89D01*
X745Y-96D02*
X718D01*
X745Y-69D01*
Y-63D01*
X738Y-56D01*
X725D01*
X718Y-63D01*
X1822Y-116D02*
Y-76D01*
X1842D01*
X1849Y-82D01*
Y-96D01*
X1842Y-102D01*
X1822D01*
X1836D02*
X1849Y-116D01*
X1889D02*
X1862D01*
X1889Y-89D01*
Y-82D01*
X1882Y-76D01*
X1869D01*
X1862Y-82D01*
X1800Y495D02*
Y535D01*
X1820D01*
X1827Y528D01*
Y515D01*
X1820Y508D01*
X1800D01*
X1814D02*
X1827Y495D01*
X1840D02*
X1854D01*
X1847D01*
Y535D01*
X1840Y528D01*
X420Y40D02*
X407D01*
X414D01*
Y7D01*
X407Y0D01*
X400D01*
X394Y7D01*
X434Y0D02*
X447D01*
X440D01*
Y40D01*
X434Y33D01*
X3024Y-138D02*
X2997D01*
Y-178D01*
X3024D01*
X2997Y-158D02*
X3011D01*
X3037Y-178D02*
X3051D01*
X3044D01*
Y-138D01*
X3037Y-145D01*
X1002Y-613D02*
Y-646D01*
X1009Y-653D01*
X1022D01*
X1029Y-646D01*
Y-613D01*
X1042Y-653D02*
X1055D01*
X1049D01*
Y-613D01*
X1042Y-620D01*
D36*
X420Y-157D02*
X407D01*
X414D01*
Y-190D01*
X407Y-197D01*
X400D01*
X394Y-190D01*
X460Y-197D02*
X434D01*
X460Y-170D01*
Y-164D01*
X454Y-157D01*
X440D01*
X434Y-164D01*
X1605Y-120D02*
Y-80D01*
X1625D01*
X1632Y-87D01*
Y-100D01*
X1625Y-107D01*
X1605D01*
X1645Y-120D02*
X1659D01*
X1652D01*
Y-80D01*
X1645Y-87D01*
D37*
X2788Y-982D02*
X2778D01*
X2773Y-987D01*
Y-1007D01*
X2778Y-1012D01*
X2788D01*
X2793Y-1007D01*
Y-987D01*
X2788Y-982D01*
X2823Y-987D02*
X2818Y-982D01*
X2808D01*
X2803Y-987D01*
Y-992D01*
X2808Y-997D01*
X2818D01*
X2823Y-1002D01*
Y-1007D01*
X2818Y-1012D01*
X2808D01*
X2803Y-1007D01*
X2833Y-982D02*
Y-1012D01*
Y-997D01*
X2853D01*
Y-982D01*
Y-1012D01*
X2863Y-982D02*
Y-1012D01*
X2873Y-1002D01*
X2883Y-1012D01*
Y-982D01*
D38*
X2978Y695D02*
X3012D01*
Y687D01*
X2978Y653D01*
Y645D01*
X3028Y653D02*
X3037Y645D01*
X3053D01*
X3062Y653D01*
Y687D01*
X3053Y695D01*
X3037D01*
X3028Y687D01*
Y678D01*
X3037Y670D01*
X3062D01*
X3004Y130D02*
Y180D01*
X2979Y155D01*
X3013D01*
X3063Y180D02*
X3029D01*
Y155D01*
X3046Y163D01*
X3054D01*
X3063Y155D01*
Y138D01*
X3054Y130D01*
X3038D01*
X3029Y138D01*
X3005Y-53D02*
Y-3D01*
X2980Y-28D01*
X3014D01*
X3030Y-11D02*
X3039Y-3D01*
X3055D01*
X3064Y-11D01*
Y-20D01*
X3055Y-28D01*
X3047D01*
X3055D01*
X3064Y-36D01*
Y-45D01*
X3055Y-53D01*
X3039D01*
X3030Y-45D01*
X3042Y-704D02*
X3059D01*
X3051D01*
Y-654D01*
X3042Y-662D01*
X1949Y-503D02*
X1940Y-495D01*
X1924D01*
X1915Y-503D01*
Y-537D01*
X1924Y-545D01*
X1940D01*
X1949Y-537D01*
Y-520D01*
X1932D01*
X1965Y-545D02*
Y-495D01*
X1999Y-545D01*
Y-495D01*
X2015D02*
Y-545D01*
X2040D01*
X2049Y-537D01*
Y-503D01*
X2040Y-495D01*
X2015D01*
M02*
