G04 Layer_Color=8388736*
%FSLAX23Y23*%
%MOIN*%
G70*
G01*
G75*
%ADD29R,1.378X0.118*%
%ADD38R,1.378X0.118*%
%ADD39O,0.091X0.022*%
%ADD40R,0.059X0.067*%
%ADD41R,0.067X0.059*%
%ADD42R,0.146X0.030*%
%ADD43C,0.067*%
%ADD44R,0.067X0.067*%
%ADD45C,0.165*%
%ADD46C,0.068*%
%ADD47R,0.068X0.068*%
%ADD48C,0.108*%
%ADD49C,0.126*%
%ADD50C,0.055*%
D29*
X1476Y-1043D02*
D03*
D38*
Y1043D02*
D03*
D39*
X1140Y-538D02*
D03*
Y-513D02*
D03*
Y-487D02*
D03*
Y-462D02*
D03*
Y-436D02*
D03*
Y-410D02*
D03*
Y-385D02*
D03*
Y-359D02*
D03*
Y-334D02*
D03*
Y-308D02*
D03*
Y-282D02*
D03*
Y-257D02*
D03*
Y-231D02*
D03*
Y-206D02*
D03*
X868Y-538D02*
D03*
Y-513D02*
D03*
Y-487D02*
D03*
Y-462D02*
D03*
Y-436D02*
D03*
Y-410D02*
D03*
Y-385D02*
D03*
Y-359D02*
D03*
Y-334D02*
D03*
Y-308D02*
D03*
Y-282D02*
D03*
Y-257D02*
D03*
Y-231D02*
D03*
Y-206D02*
D03*
D40*
X1268Y-325D02*
D03*
X1342D02*
D03*
X1268Y-140D02*
D03*
X1342D02*
D03*
X1268Y-210D02*
D03*
X1342D02*
D03*
X1268Y-515D02*
D03*
X1342D02*
D03*
X1268Y-395D02*
D03*
X1342D02*
D03*
X1753Y595D02*
D03*
X1827D02*
D03*
X1758Y100D02*
D03*
X1832D02*
D03*
X2839Y622D02*
D03*
X2914D02*
D03*
X754Y-8D02*
D03*
X679D02*
D03*
X819D02*
D03*
X894D02*
D03*
D41*
X1805Y797D02*
D03*
Y723D02*
D03*
X620Y-357D02*
D03*
Y-283D02*
D03*
X695Y-357D02*
D03*
Y-283D02*
D03*
D42*
X3114Y706D02*
D03*
Y675D02*
D03*
Y643D02*
D03*
Y612D02*
D03*
Y580D02*
D03*
Y549D02*
D03*
Y517D02*
D03*
Y486D02*
D03*
Y454D02*
D03*
Y423D02*
D03*
Y391D02*
D03*
Y360D02*
D03*
Y328D02*
D03*
Y297D02*
D03*
Y265D02*
D03*
Y234D02*
D03*
Y202D02*
D03*
Y171D02*
D03*
Y13D02*
D03*
Y-18D02*
D03*
Y-50D02*
D03*
Y-81D02*
D03*
Y-113D02*
D03*
Y-144D02*
D03*
Y-176D02*
D03*
Y-207D02*
D03*
Y-239D02*
D03*
Y-270D02*
D03*
Y-302D02*
D03*
Y-333D02*
D03*
Y-365D02*
D03*
Y-396D02*
D03*
Y-428D02*
D03*
Y-459D02*
D03*
Y-491D02*
D03*
Y-522D02*
D03*
Y-554D02*
D03*
Y-585D02*
D03*
Y-617D02*
D03*
Y-648D02*
D03*
D43*
X1520Y-215D02*
D03*
Y-315D02*
D03*
D44*
Y-515D02*
D03*
D45*
X591Y-945D02*
D03*
X2362D02*
D03*
Y945D02*
D03*
X591D02*
D03*
D46*
X755Y594D02*
D03*
Y354D02*
D03*
Y274D02*
D03*
X852Y109D02*
D03*
Y209D02*
D03*
Y578D02*
D03*
Y678D02*
D03*
X755Y514D02*
D03*
Y434D02*
D03*
D47*
Y194D02*
D03*
D48*
X314Y144D02*
D03*
X190Y76D02*
D03*
Y711D02*
D03*
X314Y644D02*
D03*
D49*
X294Y-709D02*
D03*
Y-235D02*
D03*
D50*
X401Y-522D02*
D03*
X480D02*
D03*
X401Y-423D02*
D03*
X480D02*
D03*
M02*
