G04 Layer_Physical_Order=1*
G04 Layer_Color=255*
%FSLAX23Y23*%
%MOIN*%
G70*
G01*
G75*
%ADD10O,0.083X0.014*%
%ADD11R,0.051X0.059*%
%ADD12R,0.059X0.051*%
%ADD13R,0.138X0.022*%
%ADD14C,0.014*%
%ADD15C,0.015*%
%ADD16C,0.010*%
%ADD17C,0.020*%
%ADD18C,0.020*%
%ADD19C,0.059*%
%ADD20R,0.059X0.059*%
%ADD21C,0.157*%
%ADD22C,0.060*%
%ADD23R,0.060X0.060*%
%ADD24C,0.100*%
%ADD25C,0.118*%
%ADD26C,0.047*%
%ADD27C,0.028*%
%ADD28C,0.079*%
G36*
X1717Y555D02*
X1788D01*
Y555D01*
X1792D01*
Y555D01*
X1863D01*
Y578D01*
X2563D01*
X2699Y442D01*
X2704Y438D01*
X2711Y437D01*
X3035D01*
Y428D01*
X3114D01*
Y418D01*
X3035D01*
Y415D01*
X1230D01*
X1074Y571D01*
X1073Y577D01*
X1082Y586D01*
X1717D01*
Y555D01*
D02*
G37*
G36*
X2950Y757D02*
X2956Y750D01*
X2965Y742D01*
X2976Y736D01*
X2988Y732D01*
X3000Y731D01*
Y731D01*
X3034D01*
X3035Y727D01*
X3035D01*
Y711D01*
X3114D01*
Y701D01*
X3035D01*
Y685D01*
Y680D01*
X3114D01*
Y670D01*
X3035D01*
Y654D01*
Y622D01*
Y617D01*
X3114D01*
Y607D01*
X3035D01*
Y591D01*
Y559D01*
Y528D01*
Y496D01*
Y491D01*
X3114D01*
Y481D01*
X3035D01*
Y471D01*
X2718D01*
X2582Y607D01*
X2577Y611D01*
X2570Y612D01*
X1863D01*
Y635D01*
X1792D01*
Y635D01*
X1788D01*
Y635D01*
X1717D01*
Y621D01*
X1075D01*
X1068Y619D01*
X1063Y616D01*
X1043Y596D01*
X888D01*
X887Y599D01*
X880Y607D01*
X872Y613D01*
X862Y617D01*
X852Y619D01*
X841Y617D01*
X832Y613D01*
X823Y607D01*
X817Y599D01*
X813Y589D01*
X811Y578D01*
X812Y576D01*
X808Y572D01*
X795D01*
X791Y577D01*
X794Y583D01*
X795Y594D01*
X794Y604D01*
X789Y614D01*
X783Y622D01*
X775Y628D01*
X765Y632D01*
X755Y634D01*
X744Y632D01*
X734Y628D01*
X726Y622D01*
X720Y614D01*
X716Y604D01*
X714Y594D01*
X716Y583D01*
X718Y577D01*
X720Y573D01*
X726Y565D01*
X734Y559D01*
X740Y556D01*
Y551D01*
X734Y549D01*
X726Y542D01*
X720Y534D01*
X716Y524D01*
X714Y514D01*
X716Y503D01*
X720Y493D01*
X726Y485D01*
X734Y479D01*
X740Y476D01*
Y471D01*
X734Y469D01*
X726Y462D01*
X720Y454D01*
X716Y444D01*
X714Y434D01*
X716Y423D01*
X720Y413D01*
X726Y405D01*
X734Y399D01*
X740Y396D01*
Y391D01*
X734Y389D01*
X726Y382D01*
X720Y374D01*
X716Y364D01*
X714Y354D01*
X716Y343D01*
X720Y334D01*
X726Y325D01*
X734Y319D01*
X740Y316D01*
Y311D01*
X734Y309D01*
X726Y302D01*
X720Y294D01*
X716Y284D01*
X714Y274D01*
X716Y263D01*
X720Y254D01*
X726Y245D01*
X734Y239D01*
X733Y234D01*
X715D01*
Y154D01*
X737D01*
Y32D01*
X720D01*
X719Y32D01*
X715D01*
X714Y32D01*
X684D01*
Y-8D01*
Y-48D01*
X714D01*
X715Y-48D01*
X719D01*
X720Y-48D01*
X854D01*
X855Y-48D01*
X859D01*
X860Y-48D01*
X930D01*
Y-28D01*
X974D01*
X978Y-30D01*
X987Y-32D01*
X996Y-30D01*
X1004Y-25D01*
X1009Y-17D01*
X1011Y-8D01*
X1009Y1D01*
X1004Y9D01*
X996Y14D01*
X987Y16D01*
X978Y14D01*
X974Y12D01*
X930D01*
Y32D01*
X860D01*
X859Y32D01*
X855D01*
X854Y32D01*
X772D01*
Y154D01*
X795D01*
Y234D01*
X776D01*
X775Y239D01*
X783Y245D01*
X789Y254D01*
X794Y263D01*
X794Y265D01*
X935Y265D01*
X1050Y150D01*
X2966D01*
X2967Y145D01*
X2965Y144D01*
X2956Y136D01*
X2948Y127D01*
X2942Y116D01*
X2939Y104D01*
X2938Y92D01*
X2939Y80D01*
X2942Y68D01*
X2948Y57D01*
X2956Y48D01*
X2965Y40D01*
X2974Y35D01*
X2973Y30D01*
X2943D01*
X2859Y114D01*
X2853Y118D01*
X2847Y119D01*
X1868D01*
Y140D01*
X1798D01*
X1797Y140D01*
X1793D01*
X1792Y140D01*
X1722D01*
Y119D01*
X1025D01*
X1023Y121D01*
X1018Y125D01*
X1011Y126D01*
X888D01*
X887Y129D01*
X880Y138D01*
X872Y144D01*
X862Y148D01*
X852Y149D01*
X841Y148D01*
X832Y144D01*
X823Y138D01*
X817Y129D01*
X813Y119D01*
X811Y109D01*
X813Y99D01*
X817Y89D01*
X823Y81D01*
X832Y74D01*
X841Y70D01*
X852Y69D01*
X862Y70D01*
X872Y74D01*
X880Y81D01*
X887Y89D01*
X888Y92D01*
X1004D01*
X1006Y90D01*
X1011Y86D01*
X1018Y85D01*
X1722D01*
Y60D01*
X1792D01*
X1793Y60D01*
X1797D01*
X1798Y60D01*
X1868D01*
Y85D01*
X2840D01*
X2923Y1D01*
X2929Y-3D01*
X2936Y-4D01*
X3035D01*
Y-39D01*
Y-71D01*
Y-102D01*
Y-134D01*
Y-165D01*
Y-197D01*
Y-228D01*
Y-260D01*
Y-291D01*
Y-323D01*
Y-354D01*
Y-386D01*
Y-417D01*
Y-449D01*
Y-480D01*
Y-512D01*
Y-543D01*
Y-574D01*
Y-606D01*
Y-637D01*
Y-669D01*
X3035D01*
X3034Y-673D01*
X3000D01*
X2995Y-674D01*
X2988Y-675D01*
X2976Y-678D01*
X2965Y-684D01*
X2956Y-692D01*
X2948Y-701D01*
X2946Y-705D01*
X2943Y-706D01*
X2940Y-705D01*
X2940Y-705D01*
X2938Y-704D01*
X2937Y-702D01*
X2935Y-702D01*
X2933Y-700D01*
X2931Y-700D01*
X2929Y-699D01*
X2927Y-699D01*
X2926Y-699D01*
X547D01*
Y-549D01*
X546Y-544D01*
X550Y-539D01*
X553D01*
X560Y-538D01*
X566Y-534D01*
X588Y-513D01*
X588Y-513D01*
X591Y-507D01*
X593Y-500D01*
X593Y-500D01*
Y-410D01*
X610Y-393D01*
X660D01*
Y-393D01*
X735D01*
Y-323D01*
X735Y-322D01*
Y-318D01*
X735Y-317D01*
Y-304D01*
X739Y-301D01*
X741Y-302D01*
X750Y-304D01*
X759Y-302D01*
X767Y-297D01*
X772Y-289D01*
X774Y-280D01*
X772Y-271D01*
X767Y-263D01*
X759Y-258D01*
X750Y-256D01*
X741Y-258D01*
X739Y-259D01*
X735Y-256D01*
Y-247D01*
X625D01*
Y-283D01*
X620D01*
Y-288D01*
X580D01*
Y-317D01*
X580Y-318D01*
Y-322D01*
X580Y-323D01*
Y-372D01*
X562Y-390D01*
X559Y-396D01*
X557Y-402D01*
Y-493D01*
X551Y-499D01*
X547Y-496D01*
X547Y-494D01*
Y-434D01*
X546Y-431D01*
X546Y-428D01*
X545Y-427D01*
X545Y-427D01*
X544Y-424D01*
X543Y-423D01*
X544Y-422D01*
X545Y-420D01*
X545Y-419D01*
X546Y-418D01*
X546Y-415D01*
X547Y-412D01*
Y572D01*
Y750D01*
X1765D01*
Y728D01*
X1805D01*
X1845D01*
Y750D01*
X2928D01*
X2929Y750D01*
X2931Y750D01*
X2933Y751D01*
X2936Y751D01*
X2937Y752D01*
X2938Y753D01*
X2940Y754D01*
X2942Y756D01*
X2943Y757D01*
X2943Y757D01*
X2944Y758D01*
X2946Y758D01*
X2950Y757D01*
D02*
G37*
G36*
X2913Y1104D02*
X2921Y1098D01*
X2926Y1090D01*
X2928Y1082D01*
X2928Y1080D01*
Y794D01*
X2928Y792D01*
X2929Y780D01*
X2931Y774D01*
X2928Y770D01*
X1845D01*
Y792D01*
X1805D01*
Y797D01*
D01*
Y792D01*
X1765D01*
Y770D01*
X527D01*
Y-412D01*
X522Y-412D01*
X522Y-412D01*
X517Y-401D01*
X510Y-392D01*
X501Y-385D01*
X491Y-381D01*
X480Y-380D01*
X468Y-381D01*
X458Y-385D01*
X449Y-392D01*
X443Y-399D01*
X443Y-400D01*
X438D01*
X437Y-399D01*
X432Y-392D01*
X423Y-385D01*
X412Y-381D01*
X401Y-380D01*
X390Y-381D01*
X379Y-385D01*
X370Y-392D01*
X363Y-401D01*
X359Y-412D01*
X357Y-423D01*
X359Y-435D01*
X363Y-445D01*
X370Y-454D01*
X379Y-461D01*
X390Y-465D01*
X401Y-467D01*
X412Y-465D01*
X423Y-461D01*
X432Y-454D01*
X437Y-447D01*
X438Y-447D01*
X443D01*
X443Y-447D01*
X449Y-454D01*
X458Y-461D01*
X468Y-465D01*
X480Y-467D01*
X491Y-465D01*
X501Y-461D01*
X510Y-454D01*
X517Y-445D01*
X522Y-435D01*
X522Y-434D01*
X527Y-434D01*
Y-494D01*
X513D01*
X510Y-491D01*
X501Y-484D01*
X491Y-479D01*
X480Y-478D01*
X468Y-479D01*
X458Y-484D01*
X449Y-491D01*
X443Y-498D01*
X443Y-498D01*
X438D01*
X437Y-498D01*
X432Y-491D01*
X423Y-484D01*
X412Y-479D01*
X401Y-478D01*
X390Y-479D01*
X379Y-484D01*
X370Y-491D01*
X363Y-500D01*
X359Y-510D01*
X357Y-522D01*
X359Y-533D01*
X363Y-543D01*
X370Y-553D01*
X379Y-559D01*
X390Y-564D01*
X401Y-565D01*
X412Y-564D01*
X423Y-559D01*
X432Y-553D01*
X437Y-545D01*
X438Y-545D01*
X443D01*
X443Y-545D01*
X449Y-553D01*
X458Y-559D01*
X468Y-564D01*
X480Y-565D01*
X491Y-564D01*
X501Y-559D01*
X510Y-553D01*
X513Y-549D01*
X527D01*
Y-719D01*
X2926D01*
X2929Y-724D01*
X2928Y-736D01*
X2928D01*
X2928Y-737D01*
Y-1080D01*
X2928Y-1082D01*
X2926Y-1090D01*
X2921Y-1098D01*
X2913Y-1104D01*
X2904Y-1105D01*
X2903Y-1105D01*
X50D01*
X49Y-1105D01*
X40Y-1104D01*
X32Y-1098D01*
X27Y-1090D01*
X25Y-1082D01*
X25Y-1080D01*
Y-986D01*
Y770D01*
Y1080D01*
X25Y1082D01*
X27Y1090D01*
X32Y1098D01*
X40Y1104D01*
X49Y1105D01*
X50Y1105D01*
X2903D01*
X2904Y1105D01*
X2913Y1104D01*
D02*
G37*
%LPC*%
G36*
X1378Y-400D02*
X1347D01*
Y-435D01*
X1378D01*
Y-400D01*
D02*
G37*
G36*
X1307Y-285D02*
X1303D01*
X1302Y-285D01*
X1232D01*
Y-365D01*
X1232D01*
Y-395D01*
X1193D01*
X1190Y-390D01*
X1190Y-390D01*
X1140D01*
X1089D01*
X1089Y-390D01*
X1086Y-395D01*
X1048D01*
X1047Y-393D01*
X1039Y-388D01*
X1029Y-386D01*
X1020Y-388D01*
X1012Y-393D01*
X1007Y-401D01*
X1005Y-410D01*
X1007Y-420D01*
X1012Y-428D01*
X1020Y-433D01*
X1029Y-435D01*
X1039Y-433D01*
X1047Y-428D01*
X1048Y-426D01*
X1086D01*
X1089Y-431D01*
X1088Y-436D01*
X1089Y-443D01*
X1091Y-445D01*
X1093Y-449D01*
X1091Y-453D01*
X1089Y-455D01*
X1089Y-457D01*
X1140D01*
X1190D01*
X1190Y-455D01*
X1188Y-453D01*
X1187Y-449D01*
X1188Y-445D01*
X1190Y-443D01*
X1191Y-436D01*
X1190Y-431D01*
X1193Y-426D01*
X1232D01*
Y-435D01*
X1302D01*
X1303Y-435D01*
X1307D01*
X1308Y-435D01*
X1337D01*
Y-395D01*
X1342D01*
Y-390D01*
X1378D01*
Y-365D01*
Y-330D01*
X1342D01*
Y-325D01*
X1337D01*
Y-285D01*
X1308D01*
X1307Y-285D01*
D02*
G37*
G36*
X1515Y-475D02*
X1480D01*
Y-510D01*
X1515D01*
Y-475D01*
D02*
G37*
G36*
X1560Y-520D02*
X1525D01*
Y-555D01*
X1560D01*
Y-520D01*
D02*
G37*
G36*
X1347Y-475D02*
Y-510D01*
X1378D01*
Y-475D01*
X1347D01*
D02*
G37*
G36*
X1560D02*
X1525D01*
Y-510D01*
X1560D01*
Y-475D01*
D02*
G37*
G36*
X1190Y-262D02*
X1140D01*
X1089D01*
X1089Y-263D01*
X1091Y-266D01*
X1093Y-270D01*
X1091Y-274D01*
X1089Y-276D01*
X1089Y-277D01*
X1140D01*
X1190D01*
X1190Y-276D01*
X1188Y-274D01*
X1187Y-270D01*
X1188Y-266D01*
X1190Y-263D01*
X1190Y-262D01*
D02*
G37*
G36*
X615Y-247D02*
X580D01*
Y-278D01*
X615D01*
Y-247D01*
D02*
G37*
G36*
X1174Y-188D02*
X1105D01*
X1099Y-190D01*
X1093Y-193D01*
X1089Y-199D01*
X1088Y-206D01*
X1089Y-212D01*
X1091Y-215D01*
X1093Y-218D01*
X1091Y-222D01*
X1089Y-225D01*
X1088Y-231D01*
X1089Y-238D01*
X1091Y-240D01*
X1093Y-244D01*
X1091Y-248D01*
X1089Y-250D01*
X1089Y-252D01*
X1140D01*
X1190D01*
X1190Y-250D01*
X1188Y-248D01*
X1187Y-244D01*
X1188Y-240D01*
X1190Y-238D01*
X1191Y-231D01*
X1190Y-225D01*
X1188Y-222D01*
X1187Y-218D01*
X1188Y-215D01*
X1190Y-212D01*
X1191Y-206D01*
X1190Y-199D01*
X1186Y-193D01*
X1181Y-190D01*
X1174Y-188D01*
D02*
G37*
G36*
X1307Y-100D02*
X1303D01*
X1302Y-100D01*
X1232D01*
Y-116D01*
X952D01*
X945Y-117D01*
X940Y-121D01*
X905Y-156D01*
X817D01*
X810Y-157D01*
X805Y-161D01*
X793Y-173D01*
X789Y-178D01*
X788Y-185D01*
Y-301D01*
X789Y-308D01*
X793Y-313D01*
X800Y-320D01*
X805Y-324D01*
X812Y-325D01*
X813Y-325D01*
X814Y-325D01*
X817Y-329D01*
X816Y-334D01*
X818Y-340D01*
X819Y-342D01*
X821Y-346D01*
X819Y-350D01*
X818Y-353D01*
X817Y-354D01*
X868D01*
X919D01*
X918Y-353D01*
X917Y-350D01*
X915Y-346D01*
X917Y-342D01*
X918Y-340D01*
X920Y-334D01*
X918Y-327D01*
X917Y-325D01*
X915Y-321D01*
X917Y-317D01*
X918Y-315D01*
X920Y-308D01*
X919Y-303D01*
X921Y-298D01*
X926D01*
X935Y-306D01*
Y-445D01*
X936Y-451D01*
X939Y-456D01*
X981Y-498D01*
X986Y-501D01*
X992Y-502D01*
X1007D01*
X1010Y-507D01*
X1010Y-507D01*
X1004Y-511D01*
X1004Y-511D01*
X983Y-532D01*
X981Y-533D01*
X973Y-538D01*
X968Y-546D01*
X966Y-555D01*
X968Y-564D01*
X973Y-572D01*
X981Y-577D01*
X990Y-579D01*
X999Y-577D01*
X1007Y-572D01*
X1008Y-572D01*
X1012D01*
X1013Y-572D01*
X1021Y-577D01*
X1030Y-579D01*
X1039Y-577D01*
X1047Y-572D01*
X1051Y-567D01*
X1054D01*
X1060Y-565D01*
X1066Y-561D01*
X1070Y-558D01*
X1099D01*
X1106Y-556D01*
X1106Y-556D01*
X1140D01*
X1143Y-556D01*
X1174D01*
X1181Y-554D01*
X1186Y-551D01*
X1190Y-545D01*
X1191Y-538D01*
X1190Y-532D01*
X1188Y-529D01*
X1187Y-526D01*
X1188Y-522D01*
X1190Y-519D01*
X1191Y-513D01*
X1190Y-507D01*
X1193Y-502D01*
X1207D01*
X1230Y-526D01*
X1232Y-527D01*
Y-555D01*
X1302D01*
X1303Y-555D01*
X1307D01*
X1308Y-555D01*
X1337D01*
Y-515D01*
Y-475D01*
X1308D01*
X1307Y-475D01*
X1303D01*
X1302Y-475D01*
X1232D01*
Y-478D01*
X1227Y-480D01*
X1224Y-476D01*
X1219Y-473D01*
X1213Y-472D01*
X1193D01*
X1190Y-467D01*
X1190Y-467D01*
X1140D01*
X1089D01*
X1089Y-467D01*
X1086Y-472D01*
X998D01*
X965Y-439D01*
Y-300D01*
X964Y-294D01*
X961Y-289D01*
X943Y-272D01*
X938Y-268D01*
X932Y-267D01*
X921D01*
X919Y-262D01*
X920Y-257D01*
X918Y-250D01*
X915Y-245D01*
Y-243D01*
X918Y-238D01*
X920Y-231D01*
X919Y-226D01*
X919Y-225D01*
X923Y-222D01*
X929Y-223D01*
X936Y-222D01*
X942Y-218D01*
X979Y-180D01*
X1207D01*
X1232Y-205D01*
Y-250D01*
X1302D01*
X1303Y-250D01*
X1307D01*
X1308Y-250D01*
X1378D01*
Y-244D01*
X1383Y-242D01*
X1468Y-327D01*
X1473Y-331D01*
X1480Y-332D01*
X1484D01*
X1485Y-335D01*
X1492Y-343D01*
X1500Y-350D01*
X1510Y-354D01*
X1520Y-355D01*
X1530Y-354D01*
X1540Y-350D01*
X1548Y-343D01*
X1555Y-335D01*
X1559Y-325D01*
X1560Y-315D01*
X1559Y-305D01*
X1555Y-295D01*
X1548Y-287D01*
X1540Y-280D01*
X1530Y-276D01*
X1520Y-275D01*
X1510Y-276D01*
X1500Y-280D01*
X1492Y-287D01*
X1488Y-292D01*
X1481Y-292D01*
X1390Y-201D01*
X1385Y-197D01*
X1378Y-196D01*
Y-157D01*
X1388D01*
X1458Y-227D01*
X1463Y-231D01*
X1470Y-232D01*
X1484D01*
X1485Y-235D01*
X1492Y-243D01*
X1500Y-250D01*
X1510Y-254D01*
X1520Y-255D01*
X1530Y-254D01*
X1540Y-250D01*
X1548Y-243D01*
X1555Y-235D01*
X1559Y-225D01*
X1560Y-215D01*
X1559Y-205D01*
X1555Y-195D01*
X1548Y-187D01*
X1540Y-180D01*
X1530Y-176D01*
X1520Y-175D01*
X1510Y-176D01*
X1500Y-180D01*
X1492Y-187D01*
X1485Y-195D01*
X1484Y-198D01*
X1477D01*
X1407Y-128D01*
X1402Y-124D01*
X1395Y-123D01*
X1378D01*
Y-100D01*
X1308D01*
X1307Y-100D01*
D02*
G37*
G36*
X1347Y-285D02*
Y-320D01*
X1378D01*
Y-285D01*
X1347D01*
D02*
G37*
G36*
X1190Y-287D02*
X1140D01*
X1089D01*
X1089Y-289D01*
X1091Y-291D01*
X1093Y-295D01*
X1091Y-299D01*
X1089Y-301D01*
X1088Y-308D01*
X1089Y-315D01*
X1091Y-317D01*
X1093Y-321D01*
X1091Y-325D01*
X1089Y-327D01*
X1088Y-334D01*
X1089Y-340D01*
X1091Y-342D01*
X1093Y-346D01*
X1091Y-350D01*
X1089Y-353D01*
X1088Y-359D01*
X1089Y-366D01*
X1091Y-368D01*
X1093Y-372D01*
X1091Y-376D01*
X1089Y-378D01*
X1089Y-380D01*
X1140D01*
X1190D01*
X1190Y-378D01*
X1188Y-376D01*
X1187Y-372D01*
X1188Y-368D01*
X1190Y-366D01*
X1191Y-359D01*
X1190Y-353D01*
X1188Y-350D01*
X1187Y-346D01*
X1188Y-342D01*
X1190Y-340D01*
X1191Y-334D01*
X1190Y-327D01*
X1188Y-325D01*
X1187Y-321D01*
X1188Y-317D01*
X1190Y-315D01*
X1191Y-308D01*
X1190Y-301D01*
X1188Y-299D01*
X1187Y-295D01*
X1188Y-291D01*
X1190Y-289D01*
X1190Y-287D01*
D02*
G37*
G36*
X919Y-364D02*
X868D01*
X817D01*
X818Y-366D01*
X819Y-368D01*
X821Y-372D01*
X819Y-376D01*
X818Y-378D01*
X816Y-385D01*
X818Y-391D01*
X819Y-394D01*
X821Y-398D01*
X819Y-402D01*
X818Y-404D01*
X816Y-410D01*
X818Y-417D01*
X819Y-419D01*
X821Y-423D01*
X819Y-427D01*
X818Y-429D01*
X816Y-436D01*
X818Y-443D01*
X819Y-445D01*
X821Y-449D01*
X819Y-453D01*
X818Y-455D01*
X816Y-462D01*
X818Y-468D01*
X819Y-470D01*
X821Y-474D01*
X819Y-478D01*
X818Y-481D01*
X816Y-487D01*
X818Y-494D01*
X819Y-496D01*
X821Y-500D01*
X819Y-504D01*
X818Y-506D01*
X816Y-513D01*
X818Y-519D01*
X819Y-522D01*
X821Y-526D01*
X819Y-529D01*
X818Y-532D01*
X816Y-538D01*
X818Y-545D01*
X821Y-551D01*
X827Y-554D01*
X834Y-556D01*
X902D01*
X909Y-554D01*
X915Y-551D01*
X918Y-545D01*
X920Y-538D01*
X918Y-532D01*
X917Y-529D01*
X915Y-526D01*
X917Y-522D01*
X918Y-519D01*
X920Y-513D01*
X918Y-506D01*
X917Y-504D01*
X915Y-500D01*
X917Y-496D01*
X918Y-494D01*
X920Y-487D01*
X918Y-481D01*
X917Y-478D01*
X915Y-474D01*
X917Y-470D01*
X918Y-468D01*
X920Y-462D01*
X918Y-455D01*
X917Y-453D01*
X915Y-449D01*
X917Y-445D01*
X918Y-443D01*
X920Y-436D01*
X918Y-429D01*
X917Y-427D01*
X915Y-423D01*
X917Y-419D01*
X918Y-417D01*
X920Y-410D01*
X918Y-404D01*
X917Y-402D01*
X915Y-398D01*
X917Y-394D01*
X918Y-391D01*
X920Y-385D01*
X918Y-378D01*
X917Y-376D01*
X915Y-372D01*
X917Y-368D01*
X918Y-366D01*
X919Y-364D01*
D02*
G37*
G36*
X1378Y-520D02*
X1347D01*
Y-555D01*
X1378D01*
Y-520D01*
D02*
G37*
G36*
X1515D02*
X1480D01*
Y-555D01*
X1515D01*
Y-520D01*
D02*
G37*
G36*
X1845Y718D02*
X1810D01*
Y687D01*
X1845D01*
Y718D01*
D02*
G37*
G36*
X1800D02*
X1765D01*
Y687D01*
X1800D01*
Y718D01*
D02*
G37*
G36*
X674Y32D02*
X644D01*
Y-3D01*
X674D01*
Y32D01*
D02*
G37*
G36*
Y-13D02*
X644D01*
Y-48D01*
X674D01*
Y-13D01*
D02*
G37*
G36*
X852Y719D02*
X841Y717D01*
X832Y713D01*
X823Y707D01*
X817Y699D01*
X813Y689D01*
X811Y678D01*
X813Y668D01*
X817Y658D01*
X823Y650D01*
X832Y643D01*
X841Y639D01*
X852Y638D01*
X862Y639D01*
X872Y643D01*
X880Y650D01*
X887Y658D01*
X891Y668D01*
X892Y678D01*
X891Y689D01*
X887Y699D01*
X880Y707D01*
X872Y713D01*
X862Y717D01*
X852Y719D01*
D02*
G37*
G36*
X2879Y662D02*
X2875D01*
X2874Y662D01*
X2804D01*
Y640D01*
X2789D01*
X2786Y642D01*
X2777Y644D01*
X2768Y642D01*
X2760Y637D01*
X2754Y629D01*
X2753Y619D01*
X2754Y610D01*
X2760Y602D01*
X2768Y597D01*
X2777Y595D01*
X2786Y597D01*
X2789Y599D01*
X2804D01*
Y582D01*
X2874D01*
X2875Y582D01*
X2879D01*
X2880Y582D01*
X2909D01*
Y622D01*
Y662D01*
X2880D01*
X2879Y662D01*
D02*
G37*
G36*
X2919Y662D02*
Y627D01*
X2950D01*
Y662D01*
X2919D01*
D02*
G37*
G36*
X852Y249D02*
X841Y248D01*
X832Y244D01*
X823Y238D01*
X817Y229D01*
X813Y219D01*
X811Y209D01*
X813Y199D01*
X817Y189D01*
X823Y181D01*
X832Y174D01*
X841Y170D01*
X852Y169D01*
X862Y170D01*
X872Y174D01*
X880Y181D01*
X887Y189D01*
X891Y199D01*
X892Y209D01*
X891Y219D01*
X887Y229D01*
X880Y238D01*
X872Y244D01*
X862Y248D01*
X852Y249D01*
D02*
G37*
G36*
X2950Y617D02*
X2919D01*
Y582D01*
X2950D01*
Y617D01*
D02*
G37*
G36*
X363Y-240D02*
X299D01*
Y-304D01*
X308Y-303D01*
X321Y-300D01*
X333Y-293D01*
X343Y-284D01*
X352Y-274D01*
X358Y-262D01*
X362Y-249D01*
X363Y-240D01*
D02*
G37*
G36*
X289D02*
X225D01*
X226Y-249D01*
X230Y-262D01*
X236Y-274D01*
X245Y-284D01*
X256Y-293D01*
X268Y-300D01*
X281Y-303D01*
X289Y-304D01*
Y-240D01*
D02*
G37*
G36*
X586Y-856D02*
X573Y-857D01*
X556Y-863D01*
X541Y-871D01*
X527Y-882D01*
X527Y-883D01*
D01*
X516Y-895D01*
X508Y-911D01*
X503Y-927D01*
X502Y-940D01*
X586D01*
Y-856D01*
D02*
G37*
G36*
X596D02*
Y-940D01*
X679D01*
X678Y-927D01*
X673Y-911D01*
X665Y-895D01*
X654Y-882D01*
X640Y-871D01*
X625Y-863D01*
X608Y-857D01*
X596Y-856D01*
D02*
G37*
G36*
X2357D02*
X2345Y-857D01*
X2328Y-863D01*
X2313Y-871D01*
X2299Y-882D01*
X2288Y-895D01*
X2280Y-911D01*
X2275Y-927D01*
X2274Y-940D01*
X2357D01*
Y-856D01*
D02*
G37*
G36*
X2451Y-950D02*
X2367D01*
Y-1034D01*
X2380Y-1032D01*
X2396Y-1027D01*
X2412Y-1019D01*
X2425Y-1008D01*
X2436Y-994D01*
X2445Y-979D01*
X2450Y-962D01*
X2451Y-950D01*
D02*
G37*
G36*
X586D02*
X502D01*
X503Y-962D01*
X508Y-979D01*
X516Y-994D01*
X527Y-1008D01*
X541Y-1019D01*
X556Y-1027D01*
X573Y-1032D01*
X586Y-1034D01*
Y-950D01*
D02*
G37*
G36*
X679D02*
X596D01*
Y-1034D01*
X608Y-1032D01*
X625Y-1027D01*
X640Y-1019D01*
X654Y-1008D01*
X665Y-994D01*
X673Y-979D01*
X678Y-962D01*
X679Y-950D01*
D02*
G37*
G36*
X2357D02*
X2274D01*
X2275Y-962D01*
X2280Y-979D01*
X2288Y-994D01*
X2299Y-1008D01*
X2313Y-1019D01*
X2328Y-1027D01*
X2345Y-1032D01*
X2357Y-1034D01*
Y-950D01*
D02*
G37*
G36*
X2367Y-856D02*
Y-940D01*
X2451D01*
X2450Y-927D01*
X2445Y-911D01*
X2436Y-895D01*
X2425Y-882D01*
X2412Y-871D01*
X2396Y-863D01*
X2380Y-857D01*
X2367Y-856D01*
D02*
G37*
G36*
X299Y-641D02*
Y-704D01*
X363D01*
X362Y-696D01*
X358Y-683D01*
X352Y-671D01*
X343Y-660D01*
X333Y-652D01*
X321Y-645D01*
X308Y-641D01*
X299Y-641D01*
D02*
G37*
G36*
X289Y-714D02*
X225D01*
X226Y-723D01*
X230Y-736D01*
X236Y-748D01*
X245Y-759D01*
X256Y-767D01*
X268Y-774D01*
X281Y-778D01*
X289Y-778D01*
Y-714D01*
D02*
G37*
G36*
X363D02*
X299D01*
Y-778D01*
X308Y-778D01*
X321Y-774D01*
X333Y-767D01*
X343Y-759D01*
X352Y-748D01*
X358Y-736D01*
X362Y-723D01*
X363Y-719D01*
X363Y-714D01*
D02*
G37*
G36*
X289Y-641D02*
X281Y-641D01*
X268Y-645D01*
X256Y-652D01*
X245Y-660D01*
X236Y-671D01*
X230Y-683D01*
X226Y-696D01*
X225Y-704D01*
X289D01*
Y-641D01*
D02*
G37*
G36*
X1800Y833D02*
X1765D01*
Y802D01*
X1800D01*
Y833D01*
D02*
G37*
G36*
X1845D02*
X1810D01*
Y802D01*
X1845D01*
Y833D01*
D02*
G37*
G36*
X586Y940D02*
X502D01*
X503Y927D01*
X508Y911D01*
X516Y895D01*
X527Y882D01*
X541Y871D01*
X556Y863D01*
X573Y857D01*
X586Y856D01*
Y940D01*
D02*
G37*
G36*
X195Y771D02*
Y716D01*
X249D01*
X249Y723D01*
X245Y734D01*
X240Y745D01*
X232Y754D01*
X223Y761D01*
X213Y767D01*
X201Y770D01*
X195Y771D01*
D02*
G37*
G36*
X314Y728D02*
X298Y726D01*
X282Y721D01*
X268Y714D01*
X255Y703D01*
X254Y702D01*
X249Y704D01*
X249Y706D01*
X195D01*
Y651D01*
X201Y652D01*
X213Y656D01*
X223Y661D01*
X228Y665D01*
X233Y662D01*
X232Y660D01*
X230Y644D01*
X232Y627D01*
X237Y612D01*
X244Y597D01*
X255Y584D01*
X268Y574D01*
X282Y566D01*
X298Y561D01*
X314Y560D01*
X331Y561D01*
X347Y566D01*
X361Y574D01*
X374Y584D01*
X384Y597D01*
X392Y612D01*
X397Y627D01*
X398Y644D01*
X397Y660D01*
X392Y676D01*
X384Y690D01*
X374Y703D01*
X361Y714D01*
X347Y721D01*
X331Y726D01*
X314Y728D01*
D02*
G37*
G36*
X185Y771D02*
X178Y770D01*
X167Y767D01*
X156Y761D01*
X147Y754D01*
X139Y745D01*
X134Y734D01*
X130Y723D01*
X130Y716D01*
X185D01*
Y771D01*
D02*
G37*
G36*
X596Y1034D02*
Y950D01*
X679D01*
X678Y962D01*
X673Y979D01*
X665Y994D01*
X654Y1008D01*
X640Y1019D01*
X625Y1027D01*
X608Y1032D01*
X596Y1034D01*
D02*
G37*
G36*
X2357D02*
X2345Y1032D01*
X2328Y1027D01*
X2313Y1019D01*
X2299Y1008D01*
X2288Y994D01*
X2280Y979D01*
X2275Y962D01*
X2274Y950D01*
X2357D01*
Y1034D01*
D02*
G37*
G36*
X2367D02*
Y950D01*
X2451D01*
X2450Y962D01*
X2445Y979D01*
X2436Y994D01*
X2425Y1008D01*
X2412Y1019D01*
X2396Y1027D01*
X2380Y1032D01*
X2367Y1034D01*
D02*
G37*
G36*
X586D02*
X573Y1032D01*
X556Y1027D01*
X541Y1019D01*
X527Y1008D01*
X527Y1007D01*
D01*
X516Y994D01*
X508Y979D01*
X503Y962D01*
X502Y950D01*
X586D01*
Y1034D01*
D02*
G37*
G36*
X679Y940D02*
X596D01*
Y856D01*
X608Y857D01*
X625Y863D01*
X640Y871D01*
X654Y882D01*
X665Y895D01*
X673Y911D01*
X678Y927D01*
X679Y940D01*
D02*
G37*
G36*
X2357D02*
X2274D01*
X2275Y927D01*
X2280Y911D01*
X2288Y895D01*
X2299Y882D01*
X2313Y871D01*
X2328Y863D01*
X2345Y857D01*
X2357Y856D01*
Y940D01*
D02*
G37*
G36*
X2451D02*
X2367D01*
Y856D01*
X2380Y857D01*
X2396Y863D01*
X2412Y871D01*
X2425Y882D01*
X2436Y895D01*
X2445Y911D01*
X2450Y927D01*
X2451Y940D01*
D02*
G37*
G36*
X185Y71D02*
X130D01*
X130Y64D01*
X134Y53D01*
X139Y43D01*
X147Y34D01*
X156Y26D01*
X167Y20D01*
X178Y17D01*
X185Y16D01*
Y71D01*
D02*
G37*
G36*
X249D02*
X195D01*
Y16D01*
X201Y17D01*
X213Y20D01*
X223Y26D01*
X232Y34D01*
X240Y43D01*
X245Y53D01*
X249Y64D01*
X249Y71D01*
D02*
G37*
G36*
X185Y136D02*
X178Y135D01*
X167Y132D01*
X156Y126D01*
X147Y119D01*
X139Y110D01*
X134Y99D01*
X130Y88D01*
X130Y81D01*
X185D01*
Y136D01*
D02*
G37*
G36*
X289Y-167D02*
X281Y-167D01*
X268Y-171D01*
X256Y-178D01*
X245Y-186D01*
X236Y-197D01*
X230Y-209D01*
X226Y-222D01*
X225Y-230D01*
X289D01*
Y-167D01*
D02*
G37*
G36*
X299D02*
Y-230D01*
X363D01*
X362Y-222D01*
X358Y-209D01*
X352Y-197D01*
X343Y-186D01*
X333Y-178D01*
X321Y-171D01*
X308Y-167D01*
X299Y-167D01*
D02*
G37*
G36*
X185Y706D02*
X130D01*
X130Y699D01*
X134Y688D01*
X139Y678D01*
X147Y669D01*
X156Y661D01*
X167Y656D01*
X178Y652D01*
X185Y651D01*
Y706D01*
D02*
G37*
G36*
X314Y228D02*
X298Y226D01*
X282Y221D01*
X268Y214D01*
X255Y203D01*
X244Y190D01*
X237Y176D01*
X232Y160D01*
X230Y144D01*
X232Y127D01*
X233Y125D01*
X228Y122D01*
X223Y126D01*
X213Y132D01*
X201Y135D01*
X195Y136D01*
Y81D01*
X249D01*
X249Y83D01*
X254Y85D01*
X255Y84D01*
X268Y74D01*
X282Y66D01*
X298Y61D01*
X314Y60D01*
X331Y61D01*
X347Y66D01*
X361Y74D01*
X374Y84D01*
X384Y97D01*
X392Y112D01*
X397Y127D01*
X398Y144D01*
X397Y160D01*
X392Y176D01*
X384Y190D01*
X374Y203D01*
X361Y214D01*
X347Y221D01*
X331Y226D01*
X314Y228D01*
D02*
G37*
%LPD*%
D10*
X1140Y-538D02*
D03*
Y-513D02*
D03*
Y-487D02*
D03*
Y-462D02*
D03*
Y-436D02*
D03*
Y-410D02*
D03*
Y-385D02*
D03*
Y-359D02*
D03*
Y-334D02*
D03*
Y-308D02*
D03*
Y-282D02*
D03*
Y-257D02*
D03*
Y-231D02*
D03*
Y-206D02*
D03*
X868Y-538D02*
D03*
Y-513D02*
D03*
Y-487D02*
D03*
Y-462D02*
D03*
Y-436D02*
D03*
Y-410D02*
D03*
Y-385D02*
D03*
Y-359D02*
D03*
Y-334D02*
D03*
Y-308D02*
D03*
Y-282D02*
D03*
Y-257D02*
D03*
Y-231D02*
D03*
Y-206D02*
D03*
D11*
X1268Y-325D02*
D03*
X1342D02*
D03*
X1268Y-140D02*
D03*
X1342D02*
D03*
X1268Y-210D02*
D03*
X1342D02*
D03*
X1268Y-515D02*
D03*
X1342D02*
D03*
X1268Y-395D02*
D03*
X1342D02*
D03*
X1753Y595D02*
D03*
X1827D02*
D03*
X1758Y100D02*
D03*
X1832D02*
D03*
X2839Y622D02*
D03*
X2914D02*
D03*
X754Y-8D02*
D03*
X679D02*
D03*
X819D02*
D03*
X894D02*
D03*
D12*
X1805Y797D02*
D03*
Y723D02*
D03*
X620Y-357D02*
D03*
Y-283D02*
D03*
X695Y-357D02*
D03*
Y-283D02*
D03*
D13*
X3114Y706D02*
D03*
Y675D02*
D03*
Y643D02*
D03*
Y612D02*
D03*
Y580D02*
D03*
Y549D02*
D03*
Y517D02*
D03*
Y486D02*
D03*
Y454D02*
D03*
Y423D02*
D03*
Y391D02*
D03*
Y360D02*
D03*
Y328D02*
D03*
Y297D02*
D03*
Y265D02*
D03*
Y234D02*
D03*
Y202D02*
D03*
Y171D02*
D03*
Y13D02*
D03*
Y-18D02*
D03*
Y-50D02*
D03*
Y-81D02*
D03*
Y-113D02*
D03*
Y-144D02*
D03*
Y-176D02*
D03*
Y-207D02*
D03*
Y-239D02*
D03*
Y-270D02*
D03*
Y-302D02*
D03*
Y-333D02*
D03*
Y-365D02*
D03*
Y-396D02*
D03*
Y-428D02*
D03*
Y-459D02*
D03*
Y-491D02*
D03*
Y-522D02*
D03*
Y-554D02*
D03*
Y-585D02*
D03*
Y-617D02*
D03*
Y-648D02*
D03*
D14*
X1018Y102D02*
X1759D01*
X1011Y109D02*
X1018Y102D01*
X852Y109D02*
X1011D01*
X677Y-280D02*
X750D01*
X805Y-185D02*
X817Y-173D01*
X805Y-301D02*
Y-185D01*
Y-301D02*
X812Y-308D01*
X817Y-173D02*
X912D01*
X1378Y-213D02*
X1480Y-315D01*
X1520D01*
X1470Y-215D02*
X1520D01*
X1395Y-140D02*
X1470Y-215D01*
X1342Y-140D02*
X1395D01*
X952Y-133D02*
X1260D01*
X912Y-173D02*
X952Y-133D01*
X972Y-163D02*
X1214D01*
X929Y-206D02*
X972Y-163D01*
X1359Y-213D02*
X1378D01*
X1214Y-163D02*
X1264Y-213D01*
X2711Y454D02*
X3110D01*
X1827Y595D02*
X2570D01*
X2711Y454D01*
X1744Y604D02*
X1753Y595D01*
X754Y-8D02*
X755D01*
X819D01*
X2847Y102D02*
X2936Y13D01*
X1834Y102D02*
X2847D01*
X2936Y13D02*
X3110D01*
X1268Y-395D02*
X1268Y-395D01*
X1268Y-395D02*
Y-325D01*
Y-315D01*
X852Y578D02*
X1050D01*
X1075Y604D01*
X1744D01*
X755Y-8D02*
Y194D01*
D15*
X1017Y-524D02*
X1043D01*
X990Y-551D02*
X1017Y-524D01*
X990Y-555D02*
Y-551D01*
X986Y-555D02*
X990D01*
X1099Y-540D02*
X1101Y-538D01*
X1140D01*
X1089Y-515D02*
X1091Y-513D01*
X1140D01*
X1052Y-515D02*
X1089D01*
X1030Y-555D02*
X1036Y-549D01*
X1054D01*
X1062Y-540D01*
X1099D01*
X1043Y-524D02*
X1052Y-515D01*
X575Y-402D02*
X620Y-357D01*
X575Y-500D02*
Y-402D01*
X553Y-522D02*
X575Y-500D01*
X480Y-522D02*
X553D01*
X622Y-355D02*
X702D01*
D16*
X992Y-487D02*
X1140D01*
Y-410D02*
X1252D01*
X950Y-445D02*
X992Y-487D01*
X1241Y-515D02*
X1268D01*
X1213Y-487D02*
X1241Y-515D01*
X1140Y-487D02*
X1213D01*
X950Y-445D02*
Y-300D01*
X932Y-282D02*
X950Y-300D01*
X868Y-282D02*
X932D01*
X868Y-206D02*
X929D01*
X812Y-308D02*
X868D01*
X1029Y-410D02*
X1140D01*
X1252D02*
X1268Y-395D01*
X3039Y391D02*
X3114D01*
X3025Y405D02*
X3039Y391D01*
X3025Y405D02*
Y425D01*
Y170D02*
X3109D01*
X3110Y171D01*
X3040Y265D02*
X3114D01*
X3025Y280D02*
X3040Y265D01*
X3042Y297D02*
X3114D01*
X3025Y280D02*
X3042Y297D01*
X1135Y280D02*
X3025D01*
X1135Y280D02*
X1135Y280D01*
X825Y395D02*
X1020D01*
X1135Y280D01*
D17*
X3025Y425D02*
X3096D01*
X3098Y423D01*
X3025Y486D02*
X3110D01*
X2987D02*
X3025D01*
X2988Y675D02*
X3098D01*
X2988Y612D02*
X3098D01*
X898Y-8D02*
X987D01*
X896Y-10D02*
X898Y-8D01*
X2777Y619D02*
X2837D01*
X2839Y622D01*
X2987Y706D02*
X2988Y705D01*
X2987Y706D02*
Y712D01*
X2993Y706D01*
X3098D01*
D18*
X1055Y485D02*
X1182Y358D01*
X1043Y457D02*
X1170Y330D01*
X783Y485D02*
X1055D01*
X755Y514D02*
X783Y485D01*
X778Y457D02*
X1043D01*
X755Y434D02*
X778Y457D01*
X1182Y358D02*
X3034D01*
X3035Y360D01*
X3114D01*
X3035Y328D02*
X3114D01*
X3034Y330D02*
X3035Y328D01*
X1170Y330D02*
X3034D01*
X1000Y330D02*
X1098Y232D01*
X988Y302D02*
X1086Y204D01*
X778Y330D02*
X1000D01*
X755Y354D02*
X778Y330D01*
X783Y302D02*
X988D01*
X755Y274D02*
X783Y302D01*
X1098Y232D02*
X3034D01*
X3035Y234D01*
X3114D01*
X3035Y202D02*
X3114D01*
X3034Y204D02*
X3035Y202D01*
X1086Y204D02*
X3034D01*
D19*
X1520Y-215D02*
D03*
Y-315D02*
D03*
D20*
Y-515D02*
D03*
D21*
X591Y-945D02*
D03*
X2362D02*
D03*
Y945D02*
D03*
X591D02*
D03*
D22*
X755Y594D02*
D03*
Y354D02*
D03*
Y274D02*
D03*
X852Y109D02*
D03*
Y209D02*
D03*
Y578D02*
D03*
Y678D02*
D03*
X755Y514D02*
D03*
Y434D02*
D03*
D23*
Y194D02*
D03*
D24*
X314Y144D02*
D03*
X190Y76D02*
D03*
Y711D02*
D03*
X314Y644D02*
D03*
D25*
X294Y-709D02*
D03*
Y-235D02*
D03*
D26*
X401Y-522D02*
D03*
X480D02*
D03*
X401Y-423D02*
D03*
X480D02*
D03*
D27*
X990Y-555D02*
D03*
X1030D02*
D03*
X2447Y652D02*
D03*
X1497D02*
D03*
X2047D02*
D03*
X1175Y650D02*
D03*
X2835Y-460D02*
D03*
X2445D02*
D03*
X2045Y-470D02*
D03*
X1060Y-270D02*
D03*
X1220Y-450D02*
D03*
X3025Y425D02*
D03*
Y486D02*
D03*
Y280D02*
D03*
Y170D02*
D03*
X2445Y450D02*
D03*
X1495D02*
D03*
X2045D02*
D03*
X2835Y135D02*
D03*
X2445D02*
D03*
X1175Y550D02*
D03*
X2045Y135D02*
D03*
X1495D02*
D03*
X1195D02*
D03*
X1497Y42D02*
D03*
X1197D02*
D03*
X2047D02*
D03*
X2045Y-270D02*
D03*
X1220D02*
D03*
X2047Y552D02*
D03*
X1497D02*
D03*
X2837D02*
D03*
X1029Y-410D02*
D03*
X597Y712D02*
D03*
X987Y-8D02*
D03*
X2988Y612D02*
D03*
X1060Y-450D02*
D03*
X1390D02*
D03*
X2777Y619D02*
D03*
X2987Y712D02*
D03*
X2047Y-68D02*
D03*
X2447Y42D02*
D03*
Y-68D02*
D03*
X2445Y-260D02*
D03*
X2447Y552D02*
D03*
X2835Y-260D02*
D03*
X2837Y-68D02*
D03*
Y42D02*
D03*
X750Y-280D02*
D03*
X825Y395D02*
D03*
D28*
X984Y-1063D02*
D03*
Y1063D02*
D03*
X1969D02*
D03*
X1476D02*
D03*
X1969Y-1063D02*
D03*
X1476D02*
D03*
M02*
