M48
;Layer_Color=9474304
;FILE_FORMAT=2:5
INCH,LZ
;TYPE=PLATED
T1F00S00C0.01575
T2F00S00C0.03504
T3F00S00C0.03543
T4F00S00C0.03622
T5F00S00C0.04724
T6F00S00C0.06200
T7F00S00C0.09055
T8F00S00C0.12205
T9F00S00C0.12795
%
T01
X0287028Y-0045998
Y-0025998
X0287211Y-0006797
Y0004203
X0303528Y0025302
X0248211Y0004203
Y-0006797
X0248028Y-0025998
Y-0045998
X0208028Y-0046998
Y-0026998
X0208211Y-0006797
Y0004203
X0153211
X0123211
X0103528Y0004602
Y-0007098
X0109528Y-0026998
X0125528
Y-0044998
X0109528
X0106472Y-0041036
X0106528Y-0055498
X0142528Y-0044998
X0102528Y-0055498
X0078528Y-0027998
X0077428Y-0011998
X0097811Y-0000597
X0089828Y0016402
X0080028Y0039502
X0061828Y0031302
X0061428Y0055002
X0064328Y0071602
X0121028Y0065002
Y0055002
X0153211Y0055203
Y0065203
X0153028Y0045002
X0208028
X0208211Y0055203
Y0065203
X0248211
Y0055203
X0248028Y0045002
X03Y0054
X0304228Y0058102
X0299628Y0062202
X0304528Y0068402
X0303128Y0039102
T02
X0071166Y0019392
X0080891Y0020908
Y0010908
X0071166Y0027384
Y0035376
Y0043368
Y005136
Y0059352
X0080891Y0057837
Y0067837
T03
X0155528Y-0051498
Y-0031498
Y-0021498
T04
X0035737Y-0052163
X0043611
Y-0042321
X0035737
T05
X0143292Y-0104329
X0192505
X009408
Y0104333
X0143292
X0192505
T06
X001467Y000762
Y0071124
T07
X0025068Y-0070943
Y-0023541
T08
X0239749Y-0094486
X0059055
Y009449
X0239749
T09
X002715Y0014372
Y0064372
M30
