G04 Layer_Color=65535*
%FSLAX23Y23*%
%MOIN*%
G70*
G01*
G75*
%ADD16C,0.014*%
%ADD17C,0.010*%
%ADD31C,0.024*%
%ADD32C,0.010*%
%ADD33C,0.008*%
%ADD34C,0.004*%
%ADD35C,0.005*%
%ADD36C,0.008*%
%ADD37C,0.006*%
%ADD38C,0.007*%
G36*
X2659Y-819D02*
X2659Y-819D01*
Y-820D01*
Y-820D01*
X2663Y-840D01*
Y-840D01*
X2663Y-840D01*
X2663Y-841D01*
X2664D01*
X2677Y-846D01*
X2678D01*
X2695Y-835D01*
X2696D01*
X2696Y-835D01*
X2711Y-849D01*
Y-849D01*
Y-850D01*
Y-850D01*
Y-850D01*
X2699Y-867D01*
Y-867D01*
Y-867D01*
Y-867D01*
Y-868D01*
Y-868D01*
X2705Y-882D01*
X2705Y-882D01*
X2706Y-883D01*
X2706D01*
X2725Y-886D01*
X2726D01*
X2726Y-886D01*
Y-887D01*
Y-887D01*
Y-907D01*
X2726Y-907D01*
X2725Y-908D01*
X2725D01*
X2707Y-912D01*
X2706D01*
X2706Y-912D01*
Y-912D01*
Y-912D01*
X2699Y-927D01*
Y-928D01*
Y-928D01*
Y-928D01*
Y-928D01*
X2711Y-944D01*
Y-944D01*
Y-945D01*
Y-945D01*
X2696Y-959D01*
X2696Y-959D01*
X2695D01*
X2695Y-959D01*
X2680Y-949D01*
X2678D01*
X2672Y-953D01*
X2671Y-952D01*
X2670Y-952D01*
X2657Y-918D01*
X2657Y-917D01*
X2657Y-917D01*
X2659Y-916D01*
X2659Y-916D01*
X2659D01*
X2660Y-915D01*
X2660Y-915D01*
X2663Y-913D01*
X2666Y-910D01*
X2667Y-907D01*
X2669Y-904D01*
X2669Y-902D01*
X2669Y-899D01*
X2670Y-898D01*
Y-897D01*
X2669Y-894D01*
X2669Y-891D01*
X2668Y-888D01*
X2666Y-886D01*
X2665Y-884D01*
X2664Y-883D01*
X2664Y-882D01*
X2663Y-882D01*
X2661Y-880D01*
X2658Y-878D01*
X2656Y-877D01*
X2653Y-876D01*
X2651Y-875D01*
X2649Y-875D01*
X2648D01*
X2645Y-875D01*
X2642Y-876D01*
X2639Y-877D01*
X2637Y-878D01*
X2635Y-880D01*
X2634Y-881D01*
X2633Y-882D01*
X2633Y-882D01*
X2631Y-884D01*
X2629Y-887D01*
X2628Y-890D01*
X2627Y-892D01*
X2627Y-894D01*
X2626Y-896D01*
Y-897D01*
Y-897D01*
X2627Y-902D01*
X2628Y-905D01*
X2629Y-908D01*
X2631Y-911D01*
X2633Y-913D01*
X2635Y-914D01*
X2636Y-915D01*
X2636Y-915D01*
X2637Y-916D01*
X2637Y-916D01*
X2637Y-916D01*
X2639Y-917D01*
X2639Y-918D01*
Y-918D01*
Y-918D01*
X2626Y-952D01*
X2625Y-952D01*
X2625Y-953D01*
X2624D01*
X2618Y-949D01*
X2616D01*
X2601Y-959D01*
X2601Y-959D01*
X2600D01*
X2600Y-959D01*
X2586Y-945D01*
Y-945D01*
Y-945D01*
Y-944D01*
X2597Y-928D01*
Y-928D01*
Y-928D01*
Y-927D01*
Y-927D01*
X2591Y-912D01*
X2590Y-912D01*
X2590Y-912D01*
X2589D01*
X2571Y-908D01*
X2571Y-907D01*
X2570Y-907D01*
Y-907D01*
Y-887D01*
Y-886D01*
X2571Y-886D01*
X2571D01*
X2590Y-883D01*
X2591Y-882D01*
X2591Y-882D01*
Y-882D01*
X2597Y-868D01*
Y-868D01*
Y-867D01*
Y-867D01*
Y-867D01*
X2586Y-850D01*
Y-850D01*
Y-850D01*
Y-849D01*
Y-849D01*
X2600Y-835D01*
X2600Y-835D01*
X2601D01*
X2618Y-846D01*
X2619D01*
X2633Y-841D01*
X2633Y-840D01*
X2633Y-840D01*
Y-840D01*
Y-840D01*
X2637Y-820D01*
Y-819D01*
X2638Y-819D01*
X2658D01*
X2659Y-819D01*
D02*
G37*
G36*
X1550Y-635D02*
X1485D01*
X1520Y-580D01*
X1550Y-635D01*
D02*
G37*
D16*
X-189Y63D02*
Y724D01*
X-79Y509D02*
Y699D01*
Y89D02*
Y279D01*
Y299D02*
Y489D01*
X-189Y724D02*
X20D01*
X-189Y63D02*
X20D01*
X315D02*
X724D01*
X295Y724D02*
X724D01*
X819Y256D02*
Y531D01*
D17*
X-189Y-709D02*
X142D01*
X288D02*
X441D01*
X288Y-235D02*
X441D01*
X-189D02*
X142D01*
D31*
X976Y-205D02*
G03*
X976Y-205I-12J0D01*
G01*
D32*
X873Y-177D02*
G03*
X873Y-177I-5J0D01*
G01*
D33*
X925Y-579D02*
X1083D01*
X925Y-165D02*
X1083D01*
Y-579D02*
Y-165D01*
X925Y-579D02*
Y-165D01*
X1570Y-544D02*
X1587Y-561D01*
X1570Y-562D02*
Y-168D01*
X1620Y-198D02*
X1753D01*
X1770Y-215D01*
X1753Y-232D02*
X1770Y-215D01*
X1620Y-232D02*
X1753D01*
X1620Y-298D02*
X1753D01*
X1770Y-315D01*
X1753Y-332D02*
X1770Y-315D01*
X1620Y-332D02*
X1753D01*
X1620Y-498D02*
X1753D01*
X1770Y-515D01*
X1753Y-532D02*
X1770Y-515D01*
X1620Y-532D02*
X1753D01*
X1570Y-562D02*
X1620D01*
Y-168D01*
X1570D02*
X1620D01*
X441Y-709D02*
Y-235D01*
X-189Y-709D02*
Y-235D01*
D34*
X1305Y-355D02*
Y-295D01*
Y-170D02*
Y-110D01*
Y-240D02*
Y-180D01*
Y-545D02*
Y-485D01*
Y-425D02*
Y-365D01*
X1231Y-425D02*
Y-365D01*
X1790Y565D02*
Y625D01*
X1817Y-45D02*
Y14D01*
X1775Y748D02*
X1835D01*
X590Y-320D02*
X650D01*
X2866Y592D02*
Y652D01*
X673Y-36D02*
Y24D01*
X813Y-36D02*
Y24D01*
X665Y-320D02*
X725D01*
D35*
X967Y-613D02*
Y-646D01*
X973Y-653D01*
X987D01*
X993Y-646D01*
Y-613D01*
X1007Y-653D02*
X1020D01*
X1013D01*
Y-613D01*
X1007Y-620D01*
X2989Y-138D02*
X2962D01*
Y-178D01*
X2989D01*
X2962Y-158D02*
X2975D01*
X3002Y-178D02*
X3015D01*
X3009D01*
Y-138D01*
X3002Y-145D01*
X365Y827D02*
X352D01*
X359D01*
Y794D01*
X352Y787D01*
X345D01*
X339Y794D01*
X379Y787D02*
X392D01*
X385D01*
Y827D01*
X379Y820D01*
X1765Y495D02*
Y535D01*
X1785D01*
X1792Y528D01*
Y515D01*
X1785Y508D01*
X1765D01*
X1778D02*
X1792Y495D01*
X1805D02*
X1818D01*
X1812D01*
Y535D01*
X1805Y528D01*
X1787Y-116D02*
Y-76D01*
X1807D01*
X1814Y-82D01*
Y-96D01*
X1807Y-102D01*
X1787D01*
X1800D02*
X1814Y-116D01*
X1854D02*
X1827D01*
X1854Y-89D01*
Y-82D01*
X1847Y-76D01*
X1834D01*
X1827Y-82D01*
X669Y-63D02*
X663Y-56D01*
X649D01*
X643Y-63D01*
Y-89D01*
X649Y-96D01*
X663D01*
X669Y-89D01*
X709Y-96D02*
X683D01*
X709Y-69D01*
Y-63D01*
X703Y-56D01*
X689D01*
X683Y-63D01*
X1780Y888D02*
Y848D01*
X1807D01*
X1820D02*
X1833D01*
X1827D01*
Y888D01*
X1820Y881D01*
X2867Y510D02*
Y550D01*
X2887D01*
X2894Y543D01*
Y530D01*
X2887Y523D01*
X2867D01*
X2880D02*
X2894Y510D01*
X2907Y543D02*
X2914Y550D01*
X2927D01*
X2934Y543D01*
Y537D01*
X2927Y530D01*
X2920D01*
X2927D01*
X2934Y523D01*
Y517D01*
X2927Y510D01*
X2914D01*
X2907Y517D01*
X781Y-93D02*
Y-53D01*
X801D01*
X808Y-60D01*
Y-73D01*
X801Y-80D01*
X781D01*
X794D02*
X808Y-93D01*
X841D02*
Y-53D01*
X821Y-73D01*
X848D01*
X1422Y-382D02*
X1415Y-375D01*
X1402D01*
X1395Y-382D01*
Y-408D01*
X1402Y-415D01*
X1415D01*
X1422Y-408D01*
X1435Y-382D02*
X1442Y-375D01*
X1455D01*
X1462Y-382D01*
Y-388D01*
X1455Y-395D01*
X1448D01*
X1455D01*
X1462Y-402D01*
Y-408D01*
X1455Y-415D01*
X1442D01*
X1435Y-408D01*
X1422Y-502D02*
X1415Y-495D01*
X1402D01*
X1395Y-502D01*
Y-528D01*
X1402Y-535D01*
X1415D01*
X1422Y-528D01*
X1455Y-535D02*
Y-495D01*
X1435Y-515D01*
X1462D01*
X605Y-199D02*
X598Y-192D01*
X585D01*
X578Y-199D01*
Y-225D01*
X585Y-232D01*
X598D01*
X605Y-225D01*
X645Y-192D02*
X618D01*
Y-212D01*
X631Y-205D01*
X638D01*
X645Y-212D01*
Y-225D01*
X638Y-232D01*
X625D01*
X618Y-225D01*
X1395Y-230D02*
Y-190D01*
X1415D01*
X1422Y-197D01*
Y-210D01*
X1415Y-217D01*
X1395D01*
X1408D02*
X1422Y-230D01*
X1462Y-190D02*
X1435D01*
Y-210D01*
X1448Y-203D01*
X1455D01*
X1462Y-210D01*
Y-223D01*
X1455Y-230D01*
X1442D01*
X1435Y-223D01*
X1395Y-160D02*
Y-120D01*
X1415D01*
X1422Y-127D01*
Y-140D01*
X1415Y-147D01*
X1395D01*
X1408D02*
X1422Y-160D01*
X1462Y-120D02*
X1448Y-127D01*
X1435Y-140D01*
Y-153D01*
X1442Y-160D01*
X1455D01*
X1462Y-153D01*
Y-147D01*
X1455Y-140D01*
X1435D01*
X663Y-192D02*
Y-232D01*
X690D01*
X730D02*
X703D01*
X730Y-205D01*
Y-199D01*
X723Y-192D01*
X710D01*
X703Y-199D01*
X1422Y-312D02*
X1415Y-305D01*
X1402D01*
X1395Y-312D01*
Y-338D01*
X1402Y-345D01*
X1415D01*
X1422Y-338D01*
X1435Y-345D02*
X1448D01*
X1442D01*
Y-305D01*
X1435Y-312D01*
D36*
X1570Y-120D02*
Y-80D01*
X1590D01*
X1597Y-87D01*
Y-100D01*
X1590Y-107D01*
X1570D01*
X1610Y-120D02*
X1623D01*
X1617D01*
Y-80D01*
X1610Y-87D01*
X48Y-149D02*
X35D01*
X41D01*
Y-183D01*
X35Y-189D01*
X28D01*
X21Y-183D01*
X88Y-189D02*
X61D01*
X88Y-163D01*
Y-156D01*
X81Y-149D01*
X68D01*
X61Y-156D01*
D37*
X1875Y-245D02*
Y-195D01*
X1900D01*
X1908Y-203D01*
Y-220D01*
X1900Y-228D01*
X1875D01*
X1892D02*
X1908Y-245D01*
X1925Y-212D02*
X1958Y-245D01*
X1942Y-228D01*
X1958Y-212D01*
X1925Y-245D01*
X1975Y-195D02*
Y-245D01*
X2000D01*
X2008Y-237D01*
Y-203D01*
X2000Y-195D01*
X1975D01*
X1875Y-295D02*
X1908D01*
X1892D01*
Y-345D01*
X1925Y-312D02*
X1958Y-345D01*
X1942Y-328D01*
X1958Y-312D01*
X1925Y-345D01*
X1975Y-295D02*
Y-345D01*
X2000D01*
X2008Y-337D01*
Y-303D01*
X2000Y-295D01*
X1975D01*
X1913Y-503D02*
X1905Y-495D01*
X1888D01*
X1880Y-503D01*
Y-537D01*
X1888Y-545D01*
X1905D01*
X1913Y-537D01*
Y-520D01*
X1897D01*
X1930Y-545D02*
Y-495D01*
X1963Y-545D01*
Y-495D01*
X1980D02*
Y-545D01*
X2005D01*
X2013Y-537D01*
Y-503D01*
X2005Y-495D01*
X1980D01*
X3007Y-704D02*
X3024D01*
X3015D01*
Y-654D01*
X3007Y-662D01*
X2970Y-53D02*
Y-3D01*
X2945Y-28D01*
X2978D01*
X2995Y-11D02*
X3003Y-3D01*
X3020D01*
X3028Y-11D01*
Y-20D01*
X3020Y-28D01*
X3012D01*
X3020D01*
X3028Y-36D01*
Y-45D01*
X3020Y-53D01*
X3003D01*
X2995Y-45D01*
X2969Y130D02*
Y180D01*
X2944Y155D01*
X2977D01*
X3027Y180D02*
X2994D01*
Y155D01*
X3011Y163D01*
X3019D01*
X3027Y155D01*
Y138D01*
X3019Y130D01*
X3002D01*
X2994Y138D01*
X2943Y695D02*
X2976D01*
Y687D01*
X2943Y653D01*
Y645D01*
X2993Y653D02*
X3001Y645D01*
X3018D01*
X3026Y653D01*
Y687D01*
X3018Y695D01*
X3001D01*
X2993Y687D01*
Y678D01*
X3001Y670D01*
X3026D01*
D38*
X2603Y-982D02*
X2593D01*
X2588Y-987D01*
Y-1007D01*
X2593Y-1012D01*
X2603D01*
X2608Y-1007D01*
Y-987D01*
X2603Y-982D01*
X2638Y-987D02*
X2633Y-982D01*
X2623D01*
X2618Y-987D01*
Y-992D01*
X2623Y-997D01*
X2633D01*
X2638Y-1002D01*
Y-1007D01*
X2633Y-1012D01*
X2623D01*
X2618Y-1007D01*
X2648Y-982D02*
Y-1012D01*
Y-997D01*
X2668D01*
Y-982D01*
Y-1012D01*
X2678Y-982D02*
Y-1012D01*
X2688Y-1002D01*
X2698Y-1012D01*
Y-982D01*
M02*
