M48
;Layer_Color=9474304
;FILE_FORMAT=2:5
INCH,LZ
;TYPE=PLATED
T1F00S00C0.01575
T2F00S00C0.03504
T3F00S00C0.03543
T4F00S00C0.03622
T5F00S00C0.04724
T6F00S00C0.06200
T7F00S00C0.09055
T8F00S00C0.12205
T9F00S00C0.12795
%
T01
X02835Y-0046
Y-0026
X0283682Y-0006799
Y0004201
X03Y00253
X0244682Y0004201
Y-0006799
X02445Y-0026
Y-0046
X02045Y-0047
Y-0027
X0204682Y-0006799
Y0004201
X0149682
X0119682
X01Y00046
Y-00071
X0106Y-0027
X0122
Y-0045
X0106
X0102944Y-0041038
X0103Y-00555
X0139Y-0045
X0099Y-00555
X0075Y-0028
X00739Y-0012
X0094282Y-0000599
X00863Y00164
X00765Y00395
X00583Y00313
X00579Y0055
X00608Y00716
X01175Y0065
Y0055
X0149682Y0055201
Y0065201
X01495Y0045
X02045
X0204682Y0055201
Y0065201
X0244682
Y0055201
X02445Y0045
X0283682Y0055201
X02961Y00622
X03007Y00581
X0301Y00684
X02996Y00391
T02
X0067638Y001939
X0077362Y0020906
Y0010905
X0067638Y0027382
Y0035374
Y0043366
Y0051358
Y005935
X0077362Y0057835
Y0067835
T03
X0152Y-00515
Y-00315
Y-00215
T04
X0032209Y-0052165
X0040083
Y-0042323
X0032209
T05
X0139764Y-0104331
X0188976
X0090551
Y0104331
X0139764
X0188976
T06
X0011142Y0007618
Y0071122
T07
X0021539Y-0070945
Y-0023543
T08
X0236221Y-0094488
X0059055
Y0094488
X0236221
T09
X0023622Y001437
Y006437
M30
