G04 Layer_Physical_Order=2*
G04 Layer_Color=16711680*
%FSLAX23Y23*%
%MOIN*%
G70*
G01*
G75*
%ADD13R,0.138X0.022*%
%ADD14C,0.014*%
%ADD15C,0.015*%
%ADD17C,0.020*%
%ADD19C,0.059*%
%ADD20R,0.059X0.059*%
%ADD21C,0.157*%
%ADD22C,0.060*%
%ADD23R,0.060X0.060*%
%ADD24C,0.100*%
%ADD25C,0.118*%
%ADD26C,0.047*%
%ADD27C,0.028*%
%ADD28C,0.079*%
%ADD29R,1.378X0.118*%
G36*
X2912Y1114D02*
X2920Y1110D01*
X2928Y1105D01*
X2933Y1098D01*
X2937Y1089D01*
X2938Y1081D01*
X2938Y1080D01*
Y794D01*
X2938D01*
X2939Y782D01*
X2942Y770D01*
X2948Y759D01*
X2956Y750D01*
X2965Y742D01*
X2976Y736D01*
X2988Y732D01*
X3000Y731D01*
Y731D01*
X3034D01*
X3035Y727D01*
X3035D01*
Y711D01*
X3114D01*
Y701D01*
X3035D01*
Y695D01*
X2832D01*
X2824Y693D01*
X2818Y689D01*
X2771Y643D01*
X2768Y642D01*
X2760Y637D01*
X2754Y629D01*
X2753Y619D01*
X2754Y610D01*
X2760Y602D01*
X2768Y597D01*
X2777Y595D01*
X2786Y597D01*
X2794Y602D01*
X2799Y610D01*
X2800Y614D01*
X2840Y654D01*
X3035D01*
Y622D01*
Y617D01*
X3114D01*
Y607D01*
X3035D01*
Y591D01*
Y559D01*
Y528D01*
Y496D01*
Y491D01*
X3114D01*
Y481D01*
X3035D01*
Y465D01*
Y433D01*
Y402D01*
Y396D01*
X3114D01*
Y386D01*
X3035D01*
Y380D01*
X3020D01*
X3012Y378D01*
X3006Y374D01*
X2997Y365D01*
X2992Y358D01*
X2991Y351D01*
Y337D01*
X2992Y330D01*
X2997Y323D01*
X3006Y314D01*
X3012Y310D01*
X3020Y308D01*
X3035D01*
Y302D01*
X3114D01*
Y292D01*
X3035D01*
Y276D01*
Y270D01*
X3114D01*
Y260D01*
X3035D01*
Y254D01*
X2969D01*
X2961Y252D01*
X2954Y248D01*
X2923Y217D01*
X2923Y217D01*
X2922Y216D01*
X2883Y176D01*
X2878Y170D01*
X2877Y162D01*
Y40D01*
X2848Y12D01*
X1007D01*
Y158D01*
X1006Y166D01*
X1001Y172D01*
X950Y223D01*
X944Y228D01*
X936Y229D01*
X887D01*
X880Y238D01*
X872Y244D01*
X862Y248D01*
X852Y249D01*
X841Y248D01*
X832Y244D01*
X823Y238D01*
X817Y229D01*
X813Y219D01*
X811Y209D01*
X813Y199D01*
X817Y189D01*
X823Y181D01*
X832Y174D01*
X841Y170D01*
X852Y169D01*
X862Y170D01*
X872Y174D01*
X880Y181D01*
X887Y189D01*
X928D01*
X967Y150D01*
Y12D01*
X746D01*
X660Y98D01*
Y597D01*
X722Y658D01*
X817D01*
X823Y650D01*
X832Y643D01*
X841Y639D01*
X852Y638D01*
X862Y639D01*
X872Y643D01*
X880Y650D01*
X887Y658D01*
X891Y668D01*
X892Y678D01*
X891Y689D01*
X887Y699D01*
X880Y707D01*
X872Y713D01*
X862Y717D01*
X852Y719D01*
X841Y717D01*
X832Y713D01*
X823Y707D01*
X817Y699D01*
X713D01*
X706Y697D01*
X699Y693D01*
X626Y619D01*
X621Y613D01*
X620Y605D01*
Y90D01*
X621Y82D01*
X626Y76D01*
X724Y-22D01*
X730Y-27D01*
X738Y-28D01*
X974D01*
X978Y-30D01*
X987Y-32D01*
X996Y-30D01*
X999Y-28D01*
X2857D01*
X2865Y-27D01*
X2871Y-22D01*
X2911Y18D01*
X2916Y24D01*
X2917Y32D01*
Y154D01*
X2945Y182D01*
X3035D01*
Y176D01*
X3114D01*
Y166D01*
X3035D01*
Y155D01*
X3000D01*
X3000Y155D01*
Y155D01*
X2988Y153D01*
X2976Y150D01*
X2965Y144D01*
X2956Y136D01*
X2948Y127D01*
X2942Y116D01*
X2939Y104D01*
X2938Y92D01*
X2939Y80D01*
X2942Y68D01*
X2948Y57D01*
X2956Y48D01*
X2965Y40D01*
X2976Y34D01*
X2988Y31D01*
X3000Y29D01*
Y29D01*
X3035D01*
Y-8D01*
Y-39D01*
Y-71D01*
Y-102D01*
Y-134D01*
Y-165D01*
Y-197D01*
Y-228D01*
Y-260D01*
Y-291D01*
Y-323D01*
Y-354D01*
Y-386D01*
Y-417D01*
Y-449D01*
Y-480D01*
Y-512D01*
Y-543D01*
Y-574D01*
Y-606D01*
Y-637D01*
Y-669D01*
X3035D01*
X3034Y-673D01*
X3000D01*
X2995Y-674D01*
X2988Y-675D01*
X2976Y-678D01*
X2965Y-684D01*
X2956Y-692D01*
X2948Y-701D01*
X2942Y-712D01*
X2939Y-724D01*
X2937Y-736D01*
X2937D01*
X2938Y-737D01*
Y-1080D01*
X2938Y-1081D01*
X2937Y-1089D01*
X2933Y-1098D01*
X2928Y-1105D01*
X2920Y-1110D01*
X2912Y-1114D01*
X2903Y-1115D01*
X2903Y-1115D01*
X2186D01*
X2184Y-1111D01*
X2184Y-1110D01*
X2185Y-1102D01*
Y-984D01*
X2184Y-977D01*
X2180Y-970D01*
X2173Y-966D01*
X2165Y-964D01*
X787D01*
X780Y-966D01*
X773Y-970D01*
X769Y-977D01*
X767Y-984D01*
Y-1102D01*
X769Y-1110D01*
X769Y-1111D01*
X767Y-1115D01*
X50D01*
X50Y-1115D01*
X41Y-1114D01*
X33Y-1110D01*
X25Y-1105D01*
X20Y-1098D01*
X16Y-1089D01*
X15Y-1081D01*
X15Y-1080D01*
Y1080D01*
X15Y1081D01*
X16Y1089D01*
X20Y1098D01*
X25Y1105D01*
X33Y1110D01*
X41Y1114D01*
X50Y1115D01*
X50Y1115D01*
X767D01*
X769Y1111D01*
X769Y1110D01*
X767Y1102D01*
Y984D01*
X769Y977D01*
X773Y970D01*
X780Y966D01*
X787Y964D01*
X2165D01*
X2173Y966D01*
X2180Y970D01*
X2184Y977D01*
X2185Y984D01*
Y1102D01*
X2184Y1110D01*
X2184Y1111D01*
X2186Y1115D01*
X2903D01*
X2903Y1115D01*
X2912Y1114D01*
D02*
G37*
%LPC*%
G36*
X1560Y-520D02*
X1525D01*
Y-555D01*
X1560D01*
Y-520D01*
D02*
G37*
G36*
X1515D02*
X1480D01*
Y-555D01*
X1515D01*
Y-520D01*
D02*
G37*
G36*
X434Y-527D02*
X406D01*
Y-555D01*
X410Y-554D01*
X418Y-551D01*
X425Y-546D01*
X430Y-539D01*
X434Y-530D01*
X434Y-527D01*
D02*
G37*
G36*
X1515Y-475D02*
X1480D01*
Y-510D01*
X1515D01*
Y-475D01*
D02*
G37*
G36*
X406Y-488D02*
Y-517D01*
X434D01*
X434Y-513D01*
X430Y-505D01*
X425Y-498D01*
X418Y-492D01*
X410Y-489D01*
X406Y-488D01*
D02*
G37*
G36*
X396D02*
X392Y-489D01*
X384Y-492D01*
X377Y-498D01*
X371Y-505D01*
X368Y-513D01*
X368Y-517D01*
X396D01*
Y-488D01*
D02*
G37*
G36*
X294Y-630D02*
X279Y-632D01*
X264Y-636D01*
X250Y-644D01*
X238Y-654D01*
X228Y-665D01*
X221Y-679D01*
X217Y-694D01*
X215Y-709D01*
X217Y-725D01*
X221Y-740D01*
X228Y-753D01*
X238Y-765D01*
X250Y-775D01*
X264Y-783D01*
X279Y-787D01*
X294Y-789D01*
X310Y-787D01*
X324Y-783D01*
X338Y-775D01*
X350Y-765D01*
X360Y-753D01*
X367Y-740D01*
X372Y-725D01*
X373Y-709D01*
X372Y-694D01*
X367Y-679D01*
X360Y-665D01*
X350Y-654D01*
X338Y-644D01*
X324Y-636D01*
X310Y-632D01*
X294Y-630D01*
D02*
G37*
G36*
X2362Y-846D02*
X2343Y-848D01*
X2324Y-854D01*
X2307Y-863D01*
X2292Y-875D01*
X2280Y-890D01*
X2271Y-907D01*
X2265Y-926D01*
X2263Y-945D01*
X2265Y-964D01*
X2271Y-983D01*
X2280Y-1000D01*
X2292Y-1015D01*
X2307Y-1027D01*
X2324Y-1036D01*
X2343Y-1042D01*
X2362Y-1044D01*
X2381Y-1042D01*
X2400Y-1036D01*
X2417Y-1027D01*
X2432Y-1015D01*
X2444Y-1000D01*
X2454Y-983D01*
X2459Y-964D01*
X2461Y-945D01*
X2459Y-926D01*
X2454Y-907D01*
X2444Y-890D01*
X2432Y-875D01*
X2417Y-863D01*
X2400Y-854D01*
X2381Y-848D01*
X2362Y-846D01*
D02*
G37*
G36*
X591D02*
X571Y-848D01*
X553Y-854D01*
X536Y-863D01*
X521Y-875D01*
X508Y-890D01*
X499Y-907D01*
X494Y-926D01*
X492Y-945D01*
X494Y-964D01*
X499Y-983D01*
X508Y-1000D01*
X521Y-1015D01*
X536Y-1027D01*
X553Y-1036D01*
X571Y-1042D01*
X591Y-1044D01*
X610Y-1042D01*
X628Y-1036D01*
X645Y-1027D01*
X660Y-1015D01*
X673Y-1000D01*
X682Y-983D01*
X688Y-964D01*
X689Y-945D01*
X688Y-926D01*
X682Y-907D01*
X673Y-890D01*
X660Y-875D01*
X645Y-863D01*
X628Y-854D01*
X610Y-848D01*
X591Y-846D01*
D02*
G37*
G36*
X396Y-527D02*
X368D01*
X368Y-530D01*
X371Y-539D01*
X377Y-546D01*
X384Y-551D01*
X392Y-554D01*
X396Y-555D01*
Y-527D01*
D02*
G37*
G36*
X480Y-488D02*
X471Y-489D01*
X463Y-492D01*
X456Y-498D01*
X450Y-505D01*
X447Y-513D01*
X446Y-522D01*
X447Y-530D01*
X450Y-539D01*
X456Y-546D01*
X463Y-551D01*
X471Y-554D01*
X480Y-556D01*
X488Y-554D01*
X497Y-551D01*
X504Y-546D01*
X509Y-539D01*
X512Y-530D01*
X513Y-522D01*
X512Y-513D01*
X509Y-505D01*
X504Y-498D01*
X497Y-492D01*
X488Y-489D01*
X480Y-488D01*
D02*
G37*
G36*
X460Y-327D02*
X453Y-329D01*
X447Y-332D01*
X447Y-332D01*
X388Y-391D01*
X387Y-392D01*
X384Y-394D01*
X377Y-399D01*
X371Y-406D01*
X368Y-414D01*
X367Y-423D01*
X368Y-432D01*
X371Y-440D01*
X377Y-447D01*
X384Y-453D01*
X392Y-456D01*
X401Y-457D01*
X410Y-456D01*
X418Y-453D01*
X425Y-447D01*
X430Y-440D01*
X434Y-432D01*
X435Y-423D01*
X434Y-414D01*
X430Y-406D01*
X430Y-406D01*
X431Y-405D01*
X437Y-405D01*
X437Y-406D01*
X447Y-416D01*
X446Y-423D01*
X447Y-432D01*
X450Y-440D01*
X456Y-447D01*
X463Y-453D01*
X471Y-456D01*
X480Y-457D01*
X488Y-456D01*
X497Y-453D01*
X504Y-447D01*
X509Y-440D01*
X512Y-432D01*
X513Y-423D01*
X512Y-414D01*
X509Y-406D01*
X504Y-399D01*
X497Y-394D01*
X494Y-393D01*
X495Y-388D01*
X806D01*
X967Y-548D01*
X966Y-555D01*
X968Y-564D01*
X973Y-572D01*
X981Y-577D01*
X990Y-579D01*
X999Y-577D01*
X1007Y-572D01*
X1008Y-572D01*
X1012D01*
X1013Y-572D01*
X1021Y-577D01*
X1030Y-579D01*
X1039Y-577D01*
X1047Y-572D01*
X1052Y-564D01*
X1054Y-555D01*
X1052Y-546D01*
X1047Y-538D01*
X1039Y-533D01*
X1037Y-532D01*
X837Y-332D01*
X831Y-329D01*
X824Y-327D01*
X460D01*
X460Y-327D01*
D02*
G37*
G36*
X852Y619D02*
X841Y617D01*
X832Y613D01*
X823Y607D01*
X817Y599D01*
X813Y589D01*
X811Y578D01*
X813Y568D01*
X817Y558D01*
X823Y550D01*
X832Y543D01*
X841Y539D01*
X852Y538D01*
X862Y539D01*
X872Y543D01*
X880Y550D01*
X887Y558D01*
X891Y568D01*
X892Y578D01*
X891Y589D01*
X887Y599D01*
X880Y607D01*
X872Y613D01*
X862Y617D01*
X852Y619D01*
D02*
G37*
G36*
X755Y634D02*
X744Y632D01*
X734Y628D01*
X726Y622D01*
X720Y614D01*
X716Y604D01*
X714Y594D01*
X716Y583D01*
X717Y581D01*
X687Y552D01*
X684Y546D01*
X682Y539D01*
Y248D01*
X684Y242D01*
X687Y236D01*
X715Y209D01*
Y154D01*
X795D01*
Y234D01*
X776D01*
X775Y239D01*
X783Y245D01*
X789Y254D01*
X794Y263D01*
X795Y274D01*
X794Y284D01*
X789Y294D01*
X783Y302D01*
X775Y309D01*
X769Y311D01*
Y316D01*
X775Y319D01*
X783Y325D01*
X789Y334D01*
X794Y343D01*
X795Y354D01*
X794Y364D01*
X789Y374D01*
X783Y382D01*
X775Y389D01*
X769Y391D01*
Y396D01*
X775Y399D01*
X783Y405D01*
X789Y413D01*
X794Y423D01*
X795Y434D01*
X794Y444D01*
X789Y454D01*
X783Y462D01*
X775Y469D01*
X769Y471D01*
Y476D01*
X775Y479D01*
X783Y485D01*
X789Y493D01*
X794Y503D01*
X795Y514D01*
X794Y524D01*
X789Y534D01*
X783Y542D01*
X775Y549D01*
X769Y551D01*
Y556D01*
X775Y559D01*
X783Y565D01*
X789Y573D01*
X794Y583D01*
X795Y594D01*
X794Y604D01*
X789Y614D01*
X783Y622D01*
X775Y628D01*
X765Y632D01*
X755Y634D01*
D02*
G37*
G36*
X314Y218D02*
X300Y217D01*
X286Y212D01*
X273Y206D01*
X262Y196D01*
X253Y185D01*
X246Y172D01*
X241Y158D01*
X240Y144D01*
X241Y130D01*
X239Y128D01*
X237Y128D01*
X228Y134D01*
X216Y141D01*
X203Y145D01*
X190Y146D01*
X176Y145D01*
X163Y141D01*
X151Y134D01*
X140Y126D01*
X131Y115D01*
X125Y103D01*
X121Y90D01*
X120Y76D01*
X121Y63D01*
X125Y49D01*
X131Y37D01*
X140Y27D01*
X151Y18D01*
X163Y11D01*
X176Y8D01*
X190Y6D01*
X203Y8D01*
X216Y11D01*
X228Y18D01*
X239Y27D01*
X248Y37D01*
X254Y49D01*
X258Y63D01*
X260Y76D01*
X258Y88D01*
X263Y90D01*
X273Y82D01*
X286Y75D01*
X300Y71D01*
X314Y69D01*
X329Y71D01*
X343Y75D01*
X356Y82D01*
X367Y91D01*
X376Y102D01*
X383Y115D01*
X387Y129D01*
X389Y144D01*
X387Y158D01*
X383Y172D01*
X376Y185D01*
X367Y196D01*
X356Y206D01*
X343Y212D01*
X329Y217D01*
X314Y218D01*
D02*
G37*
G36*
X2362Y1044D02*
X2343Y1042D01*
X2324Y1036D01*
X2307Y1027D01*
X2292Y1015D01*
X2280Y1000D01*
X2271Y983D01*
X2265Y964D01*
X2263Y945D01*
X2265Y926D01*
X2271Y907D01*
X2280Y890D01*
X2292Y875D01*
X2307Y863D01*
X2324Y854D01*
X2343Y848D01*
X2362Y846D01*
X2381Y848D01*
X2400Y854D01*
X2417Y863D01*
X2432Y875D01*
X2444Y890D01*
X2454Y907D01*
X2459Y926D01*
X2461Y945D01*
X2459Y964D01*
X2454Y983D01*
X2444Y1000D01*
X2432Y1015D01*
X2417Y1027D01*
X2400Y1036D01*
X2381Y1042D01*
X2362Y1044D01*
D02*
G37*
G36*
X591D02*
X571Y1042D01*
X553Y1036D01*
X536Y1027D01*
X521Y1015D01*
X508Y1000D01*
X499Y983D01*
X494Y964D01*
X492Y945D01*
X494Y926D01*
X499Y907D01*
X508Y890D01*
X521Y875D01*
X536Y863D01*
X553Y854D01*
X571Y848D01*
X591Y846D01*
X610Y848D01*
X628Y854D01*
X645Y863D01*
X660Y875D01*
X673Y890D01*
X682Y907D01*
X688Y926D01*
X689Y945D01*
X688Y964D01*
X682Y983D01*
X673Y1000D01*
X660Y1015D01*
X645Y1027D01*
X628Y1036D01*
X610Y1042D01*
X591Y1044D01*
D02*
G37*
G36*
X190Y781D02*
X176Y780D01*
X163Y776D01*
X151Y769D01*
X140Y761D01*
X131Y750D01*
X125Y738D01*
X121Y725D01*
X120Y711D01*
X121Y698D01*
X125Y684D01*
X131Y672D01*
X140Y662D01*
X151Y653D01*
X163Y647D01*
X176Y643D01*
X190Y641D01*
X203Y643D01*
X216Y647D01*
X228Y653D01*
X237Y660D01*
X239Y659D01*
X241Y657D01*
X240Y644D01*
X241Y629D01*
X246Y615D01*
X253Y602D01*
X262Y591D01*
X273Y582D01*
X286Y575D01*
X300Y571D01*
X314Y569D01*
X329Y571D01*
X343Y575D01*
X356Y582D01*
X367Y591D01*
X376Y602D01*
X383Y615D01*
X387Y629D01*
X389Y644D01*
X387Y658D01*
X383Y672D01*
X376Y685D01*
X367Y696D01*
X356Y706D01*
X343Y712D01*
X329Y717D01*
X314Y718D01*
X300Y717D01*
X286Y712D01*
X273Y706D01*
X263Y697D01*
X258Y700D01*
X260Y711D01*
X258Y725D01*
X254Y738D01*
X248Y750D01*
X239Y761D01*
X228Y769D01*
X216Y776D01*
X203Y780D01*
X190Y781D01*
D02*
G37*
G36*
X1520Y-275D02*
X1510Y-276D01*
X1500Y-280D01*
X1492Y-287D01*
X1485Y-295D01*
X1481Y-305D01*
X1480Y-315D01*
X1481Y-325D01*
X1485Y-335D01*
X1492Y-343D01*
X1500Y-350D01*
X1510Y-354D01*
X1520Y-355D01*
X1530Y-354D01*
X1540Y-350D01*
X1548Y-343D01*
X1555Y-335D01*
X1559Y-325D01*
X1560Y-315D01*
X1559Y-305D01*
X1555Y-295D01*
X1548Y-287D01*
X1540Y-280D01*
X1530Y-276D01*
X1520Y-275D01*
D02*
G37*
G36*
X750Y-256D02*
X741Y-258D01*
X733Y-263D01*
X728Y-271D01*
X726Y-280D01*
X728Y-289D01*
X733Y-297D01*
X741Y-302D01*
X750Y-304D01*
X759Y-302D01*
X767Y-297D01*
X892D01*
X1005Y-411D01*
X1007Y-420D01*
X1012Y-428D01*
X1020Y-433D01*
X1029Y-435D01*
X1039Y-433D01*
X1047Y-428D01*
X1052Y-420D01*
X1054Y-410D01*
X1052Y-401D01*
X1047Y-393D01*
X1039Y-388D01*
X1030Y-386D01*
X911Y-268D01*
X906Y-264D01*
X899Y-263D01*
X767D01*
X759Y-258D01*
X750Y-256D01*
D02*
G37*
G36*
X1560Y-475D02*
X1525D01*
Y-510D01*
X1560D01*
Y-475D01*
D02*
G37*
G36*
X852Y149D02*
X841Y148D01*
X832Y144D01*
X823Y138D01*
X817Y129D01*
X813Y119D01*
X811Y109D01*
X813Y99D01*
X817Y89D01*
X823Y81D01*
X832Y74D01*
X841Y70D01*
X852Y69D01*
X862Y70D01*
X872Y74D01*
X880Y81D01*
X887Y89D01*
X891Y99D01*
X892Y109D01*
X891Y119D01*
X887Y129D01*
X880Y138D01*
X872Y144D01*
X862Y148D01*
X852Y149D01*
D02*
G37*
G36*
X1520Y-175D02*
X1510Y-176D01*
X1500Y-180D01*
X1492Y-187D01*
X1485Y-195D01*
X1481Y-205D01*
X1480Y-215D01*
X1481Y-225D01*
X1485Y-235D01*
X1492Y-243D01*
X1500Y-250D01*
X1510Y-254D01*
X1520Y-255D01*
X1530Y-254D01*
X1540Y-250D01*
X1548Y-243D01*
X1555Y-235D01*
X1559Y-225D01*
X1560Y-215D01*
X1559Y-205D01*
X1555Y-195D01*
X1548Y-187D01*
X1540Y-180D01*
X1530Y-176D01*
X1520Y-175D01*
D02*
G37*
G36*
X294Y-156D02*
X279Y-158D01*
X264Y-162D01*
X250Y-170D01*
X238Y-179D01*
X228Y-191D01*
X221Y-205D01*
X217Y-220D01*
X215Y-235D01*
X217Y-251D01*
X221Y-266D01*
X228Y-279D01*
X238Y-291D01*
X250Y-301D01*
X264Y-309D01*
X279Y-313D01*
X294Y-315D01*
X310Y-313D01*
X324Y-309D01*
X338Y-301D01*
X350Y-291D01*
X360Y-279D01*
X367Y-266D01*
X372Y-251D01*
X373Y-235D01*
X372Y-220D01*
X367Y-205D01*
X360Y-191D01*
X350Y-179D01*
X338Y-170D01*
X324Y-162D01*
X310Y-158D01*
X294Y-156D01*
D02*
G37*
%LPD*%
D13*
X3114Y706D02*
D03*
Y675D02*
D03*
Y643D02*
D03*
Y612D02*
D03*
Y580D02*
D03*
Y549D02*
D03*
Y517D02*
D03*
Y486D02*
D03*
Y454D02*
D03*
Y423D02*
D03*
Y391D02*
D03*
Y360D02*
D03*
Y328D02*
D03*
Y297D02*
D03*
Y265D02*
D03*
Y234D02*
D03*
Y202D02*
D03*
Y171D02*
D03*
Y13D02*
D03*
Y-18D02*
D03*
Y-50D02*
D03*
Y-81D02*
D03*
Y-113D02*
D03*
Y-144D02*
D03*
Y-176D02*
D03*
Y-207D02*
D03*
Y-239D02*
D03*
Y-270D02*
D03*
Y-302D02*
D03*
Y-333D02*
D03*
Y-365D02*
D03*
Y-396D02*
D03*
Y-428D02*
D03*
Y-459D02*
D03*
Y-491D02*
D03*
Y-522D02*
D03*
Y-554D02*
D03*
Y-585D02*
D03*
Y-617D02*
D03*
Y-648D02*
D03*
D14*
X899Y-280D02*
X1029Y-410D01*
X750Y-280D02*
X899D01*
D15*
X824Y-345D02*
X1030Y-551D01*
X460Y-345D02*
X824D01*
X401Y-404D02*
X460Y-345D01*
X814Y-370D02*
X990Y-546D01*
X470Y-370D02*
X814D01*
X450Y-390D02*
X470Y-370D01*
X990Y-555D02*
Y-546D01*
X1030Y-555D02*
Y-551D01*
X401Y-423D02*
Y-404D01*
X450Y-394D02*
Y-390D01*
Y-394D02*
X480Y-423D01*
X700Y248D02*
X755Y194D01*
X700Y248D02*
Y539D01*
X755Y594D01*
D17*
X2988Y171D02*
X3098D01*
X3004Y297D02*
X3098D01*
X3002Y265D02*
X3098D01*
X3025Y486D02*
X3098D01*
X3098Y486D01*
X3016Y280D02*
X3021D01*
X3025D01*
X2987D02*
X3016D01*
X3002Y265D02*
X3016Y280D01*
X3004Y297D02*
X3021Y280D01*
X2986Y281D02*
X2987Y280D01*
X2989Y170D02*
X3025D01*
X2988Y171D02*
X2989Y170D01*
X2976Y365D02*
X2986Y375D01*
X3098Y265D02*
X3110D01*
X3098Y297D02*
X3110D01*
X3020Y360D02*
X3098D01*
X3011Y351D02*
X3020Y360D01*
X3011Y337D02*
Y351D01*
Y337D02*
X3020Y328D01*
X3098D01*
X3019Y612D02*
X3098D01*
X2777Y619D02*
X2832Y675D01*
X3098D01*
X2823Y706D02*
X2829Y712D01*
X2989Y391D02*
X3098D01*
X987Y-8D02*
X2857D01*
X2897Y32D01*
Y162D01*
X2969Y234D02*
X3110D01*
X2897Y162D02*
X2937Y202D01*
X2969Y234D01*
X2937Y202D02*
X3110D01*
X2937D02*
X2937D01*
X3023Y706D02*
X3114D01*
X852Y209D02*
X936D01*
X987Y158D01*
Y-8D02*
Y158D01*
X713Y678D02*
X852D01*
X640Y605D02*
X713Y678D01*
X640Y90D02*
Y605D01*
Y90D02*
X738Y-8D01*
X987D01*
D19*
X1520Y-215D02*
D03*
Y-315D02*
D03*
D20*
Y-515D02*
D03*
D21*
X591Y-945D02*
D03*
X2362D02*
D03*
Y945D02*
D03*
X591D02*
D03*
D22*
X755Y594D02*
D03*
Y354D02*
D03*
Y274D02*
D03*
X852Y109D02*
D03*
Y209D02*
D03*
Y578D02*
D03*
Y678D02*
D03*
X755Y514D02*
D03*
Y434D02*
D03*
D23*
Y194D02*
D03*
D24*
X314Y144D02*
D03*
X190Y76D02*
D03*
Y711D02*
D03*
X314Y644D02*
D03*
D25*
X294Y-709D02*
D03*
Y-235D02*
D03*
D26*
X401Y-522D02*
D03*
X480D02*
D03*
X401Y-423D02*
D03*
X480D02*
D03*
D27*
X990Y-555D02*
D03*
X1030D02*
D03*
X2447Y652D02*
D03*
X1497D02*
D03*
X2047D02*
D03*
X1175Y650D02*
D03*
X2835Y-460D02*
D03*
X2445D02*
D03*
X2045Y-470D02*
D03*
X1060Y-270D02*
D03*
X1220Y-450D02*
D03*
X3025Y425D02*
D03*
Y486D02*
D03*
Y280D02*
D03*
Y170D02*
D03*
X2445Y450D02*
D03*
X1495D02*
D03*
X2045D02*
D03*
X2835Y135D02*
D03*
X2445D02*
D03*
X1175Y550D02*
D03*
X2045Y135D02*
D03*
X1495D02*
D03*
X1195D02*
D03*
X1497Y42D02*
D03*
X1197D02*
D03*
X2047D02*
D03*
X2045Y-270D02*
D03*
X1220D02*
D03*
X2047Y552D02*
D03*
X1497D02*
D03*
X2837D02*
D03*
X1029Y-410D02*
D03*
X597Y712D02*
D03*
X987Y-8D02*
D03*
X2988Y612D02*
D03*
X1060Y-450D02*
D03*
X1390D02*
D03*
X2777Y619D02*
D03*
X2987Y712D02*
D03*
X2047Y-68D02*
D03*
X2447Y42D02*
D03*
Y-68D02*
D03*
X2445Y-260D02*
D03*
X2447Y552D02*
D03*
X2835Y-260D02*
D03*
X2837Y-68D02*
D03*
Y42D02*
D03*
X750Y-280D02*
D03*
X825Y395D02*
D03*
D28*
X984Y-1063D02*
D03*
Y1063D02*
D03*
X1969D02*
D03*
X1476D02*
D03*
X1969Y-1063D02*
D03*
X1476D02*
D03*
D29*
X1476Y-1043D02*
D03*
Y1043D02*
D03*
M02*
