G04 Layer_Color=16711935*
%FSLAX23Y23*%
%MOIN*%
G70*
G01*
G75*
%ADD29R,1.378X0.118*%
%ADD42R,0.146X0.030*%
%ADD43C,0.067*%
%ADD44R,0.067X0.067*%
%ADD45C,0.165*%
%ADD46C,0.068*%
%ADD47R,0.068X0.068*%
%ADD48C,0.108*%
%ADD49C,0.126*%
%ADD50C,0.055*%
D29*
X1476Y-1043D02*
D03*
Y1043D02*
D03*
D42*
X3114Y706D02*
D03*
Y675D02*
D03*
Y643D02*
D03*
Y612D02*
D03*
Y580D02*
D03*
Y549D02*
D03*
Y517D02*
D03*
Y486D02*
D03*
Y454D02*
D03*
Y423D02*
D03*
Y391D02*
D03*
Y360D02*
D03*
Y328D02*
D03*
Y297D02*
D03*
Y265D02*
D03*
Y234D02*
D03*
Y202D02*
D03*
Y171D02*
D03*
Y13D02*
D03*
Y-18D02*
D03*
Y-50D02*
D03*
Y-81D02*
D03*
Y-113D02*
D03*
Y-144D02*
D03*
Y-176D02*
D03*
Y-207D02*
D03*
Y-239D02*
D03*
Y-270D02*
D03*
Y-302D02*
D03*
Y-333D02*
D03*
Y-365D02*
D03*
Y-396D02*
D03*
Y-428D02*
D03*
Y-459D02*
D03*
Y-491D02*
D03*
Y-522D02*
D03*
Y-554D02*
D03*
Y-585D02*
D03*
Y-617D02*
D03*
Y-648D02*
D03*
D43*
X1520Y-215D02*
D03*
Y-315D02*
D03*
D44*
Y-515D02*
D03*
D45*
X591Y-945D02*
D03*
X2362D02*
D03*
Y945D02*
D03*
X591D02*
D03*
D46*
X755Y594D02*
D03*
Y354D02*
D03*
Y274D02*
D03*
X852Y109D02*
D03*
Y209D02*
D03*
Y578D02*
D03*
Y678D02*
D03*
X755Y514D02*
D03*
Y434D02*
D03*
D47*
Y194D02*
D03*
D48*
X314Y144D02*
D03*
X190Y76D02*
D03*
Y711D02*
D03*
X314Y644D02*
D03*
D49*
X294Y-709D02*
D03*
Y-235D02*
D03*
D50*
X401Y-522D02*
D03*
X480D02*
D03*
X401Y-423D02*
D03*
X480D02*
D03*
M02*
